
<svg width="138px" height="41px" viewBox="0 0 138 41" version="1.1" xmlns="http://www.w3.org/2000/svg" xmlns:xlink="http://www.w3.org/1999/xlink">
    <defs></defs>
    <g id="logo__the-bbc" stroke="none" stroke-width="1" fill="none" fill-rule="evenodd">
        <g transform="translate(-1.000000, -1.000000)" fill="#000000" fill-rule="nonzero">
            <g transform="translate(0.000000, 0.755601)">
                <g id="bbc--c" transform="translate(117.838763, 20.552207) scale(-1, 1) rotate(-180.000000) translate(-117.838763, -20.552207) translate(96.838763, 0.552207)">
                    <path d="M33.2993056,31.7857008 L33.2993056,26.5826843 C33.2993056,26.5826843 28.2222967,29.7044942 22.6094717,29.7676872 C22.6094717,29.7676872 12.1406241,29.9720238 11.6676226,19.7317306 C11.6676226,19.7317306 11.2892214,10.3114327 22.4834641,9.7752382 C22.4834641,9.7752382 27.1820718,9.2076364 33.5516992,13.2754493 L33.5516992,7.8832322 C33.5516992,7.8832322 25.0062649,2.8066017 15.1046407,6.7166213 C15.1046407,6.7166213 6.7798143,9.75896695 6.4642277,19.7317306 C6.4642277,19.7317306 6.1172338,29.9882951 17.2172546,33.3939059 C17.2172546,33.3939059 20.1816496,34.5291095 25.5106737,34.0247007 C25.5106737,34.0247007 28.6952982,33.7091141 33.2993056,31.7857008 Z M0.203958247,0.141143648 L41.7819253,0.141143648 L41.7819253,39.3223175 L0.203958247,39.3223175 L0.203958247,0.141143648 Z" id="Shape"></path>
                </g>
                <g id="bbc--b1" transform="translate(69.766126, 20.551677) scale(-1, 1) rotate(-180.000000) translate(-69.766126, -20.551677) translate(48.766126, 0.551677)">
                    <path d="M26.8664852,14.0008444 C26.8664852,9.7438309 21.5688684,9.9962245 21.5688684,9.9962245 L16.2712516,9.9962245 L16.2712516,17.6902561 L21.5688684,17.6902561 C27.0242785,17.7216634 26.8664852,14.0008444 26.8664852,14.0008444 Z M16.2712516,29.4206933 L20.3076572,29.4206933 C24.5014777,29.199707 24.3436844,26.0782755 24.3436844,26.0782755 C24.3436844,22.1996632 19.7082697,22.1364702 19.7082697,22.1364702 L16.2712516,22.1364702 L16.2712516,29.4206933 Z M25.8890749,20.6228654 C25.8890749,20.6228654 29.5152936,22.1678775 29.4838863,26.2674761 C29.4838863,26.2674761 30.0352168,32.983719 21.1352206,33.8037144 L11.2574357,33.8037144 L11.2574357,5.64460871 L22.5780644,5.6446107 C22.5780644,5.6446107 32.0380944,5.612825 32.0380944,13.5910359 C32.0380944,13.5910359 32.2587023,19.0146603 25.8890749,20.6228654 Z M0.329965846,39.3217877 L41.9079329,39.3217877 L41.9079329,0.140613886 L0.329965846,0.140613886 L0.329965846,39.3217877 Z" id="Shape"></path>
                </g>
                <g id="bbc--b0" transform="translate(21.819459, 20.551677) scale(-1, 1) rotate(-180.000000) translate(-21.819459, -20.551677) translate(0.819459, 0.551677)">
                    <path d="M26.8664852,14.0008444 C26.8664852,9.7438309 21.5688684,9.9962245 21.5688684,9.9962245 L16.2712516,9.9962245 L16.2712516,17.6902561 L21.5688684,17.6902561 C27.0242785,17.7216634 26.8664852,14.0008444 26.8664852,14.0008444 Z M16.2712516,29.4206933 L20.3076572,29.4206933 C24.5014777,29.199707 24.3436844,26.0782755 24.3436844,26.0782755 C24.3436844,22.1996632 19.7082697,22.1364702 19.7082697,22.1364702 L16.2712516,22.1364702 L16.2712516,29.4206933 Z M25.8890749,20.6228654 C25.8890749,20.6228654 29.5152936,22.1678775 29.4838863,26.2674761 C29.4838863,26.2674761 30.0352168,32.983719 21.1352206,33.8037144 L11.2574357,33.8037144 L11.2574357,5.64460871 L22.5780644,5.6446107 C22.5780644,5.6446107 32.0380944,5.612825 32.0380944,13.5910359 C32.0380944,13.5910359 32.2587023,19.0146603 25.8890749,20.6228654 Z M0.329965846,39.3217877 L41.9079329,39.3217877 L41.9079329,0.140613886 L0.329965846,0.140613886 L0.329965846,39.3217877 Z" id="Shape"></path>
                </g>
            </g>
        </g>
    </g>
</svg>