<svg width="125px" height="41px" viewBox="0 0 125 41" version="1.1" xmlns="http://www.w3.org/2000/svg" xmlns:xlink="http://www.w3.org/1999/xlink">
    <defs></defs>
    <g id="Symbols" stroke="none" stroke-width="1" fill="none" fill-rule="evenodd">
        <g id="logo__the-guardian" fill="#000000" fill-rule="nonzero">
            <path d="M28.1808085,21.8559488 L30.3427392,20.7305748 L30.3427392,3.62573522 L28.7065698,3.62573522 L24.7107836,8.95645444 L24.2607318,8.95645444 L24.5130973,2.96151068 L41.8337793,2.96151068 L42.0861447,8.96068517 L41.6066504,8.96068517 L37.6949859,3.62996595 L36.0125496,3.62996595 L36.0125496,20.6882675 L38.1870986,21.8432566 L38.1870986,22.4228666 L28.1808085,22.4228666 L28.1808085,21.8559488 M43.7769933,21.102879 L43.7769933,2.15344134 L42.0945569,1.47652461 L42.0945569,1.12537406 L48.1597399,0 L48.8243022,0 L48.8243022,8.99453101 L48.9673093,8.8506862 C50.4205137,7.60774017 52.2627815,6.92007739 54.1702437,6.90878134 C56.8284931,6.90878134 58.0019924,8.41915179 58.0019924,11.2325869 L58.0019924,21.102879 L59.4236511,21.8813332 L59.4236511,22.4228666 L51.4867577,22.4228666 L51.4867577,21.8813332 L52.9126225,21.0986482 L52.9126225,11.1987411 C52.9126225,9.65029409 52.239648,9.03260757 50.9820268,9.03260757 C50.2224068,9.01623465 49.4800318,9.26263234 48.8789814,9.73067795 L48.8789814,21.1282633 L50.2796097,21.9067176 L50.2796097,22.4228666 L42.3385102,22.4228666 L42.3385102,21.9067176 L43.7769933,21.102879 M63.7391003,15.2813951 C63.9031378,18.412135 65.29956,20.836343 68.6055474,20.836343 C70.2038619,20.836343 71.3395064,20.0917346 72.3910291,19.5248168 L72.3910291,20.1425034 C70.9592758,21.8987215 68.8108046,22.9044505 66.552975,22.8755546 C61.4299564,22.8755546 58.8137679,20.0113507 58.8137679,15.0529357 C58.8137679,10.2045197 61.6781158,7.18377876 66.3048157,7.18377876 C70.6581197,7.18377876 72.9167905,9.37106594 72.9167905,15.1375503 L72.9167905,15.2856258 L63.7391003,15.2813951 M63.6549785,14.5579404 L68.17232,14.2829429 C68.17232,10.4033639 67.5119637,7.82684965 66.1870451,7.82684965 C64.7737986,7.83108038 63.6549785,10.8222062 63.6549785,14.5621711 L63.6549785,14.5579404 M0,30.0085646 C0,21.7628728 5.42585716,18.8267465 11.4700097,18.8267465 C14.0357251,18.8267465 16.4542273,19.2498194 17.8085885,19.804045 L17.9263591,25.5578372 L17.3501246,25.5578372 L13.8043901,19.9901971 C13.0915418,19.7037344 12.3245191,19.5794779 11.5583376,19.6263543 C8.34488419,19.6263543 6.70030268,23.3620885 6.75498186,29.4839542 C6.81386713,36.807347 8.07990046,40.1369312 11.0283701,40.1369312 C11.6322806,40.1569848 12.2341722,40.0563358 12.7991344,39.8407801 L12.7991344,31.9970075 L10.8517143,30.8843257 L10.8517143,30.2158704 L20.2565334,30.2158704 L20.2565334,30.9181715 L18.338556,31.9970075 L18.338556,39.7392426 C16.056289,40.552558 13.6514987,40.9633196 11.2302625,40.953462 C4.36171618,40.953462 4.20609124e-08,37.7507997 4.20609124e-08,30.0085646 M19.3816665,26.1628315 L19.3816665,25.6847591 L25.6908027,24.5636157 L26.3848077,24.6228459 L26.3848077,37.1627283 C26.3848077,38.6730988 27.1082553,39.138479 28.3196095,39.138479 C29.1164113,39.1500289 29.8738862,38.7909246 30.3721818,38.1654112 L30.3721818,26.9159014 L28.6392724,26.1586008 L28.6392724,25.6678361 L34.9484086,24.5466928 L35.5835283,24.605923 L35.5835283,38.9904035 L37.2869951,39.7096275 L37.2869951,40.1665463 L31.0998355,40.9280776 L30.4647158,40.8688474 L30.4647158,38.9777113 L30.2922661,38.9777113 C29.0216902,40.2259034 27.3275609,40.9426313 25.5520017,40.9830771 C22.5194102,40.9830771 21.1314003,39.1807863 21.1314003,36.447735 L21.1314003,26.9159014 L19.3816665,26.1628315 M59.0324847,24.5382313 L59.5540399,24.5974616 L59.5540399,29.2512641 L59.697047,29.2512641 C60.3742276,25.8666804 61.8631838,24.5974616 63.6844211,24.5974616 C63.9489842,24.5849809 64.2135473,24.6252575 64.4625479,24.715922 L64.4625479,29.4289547 C64.0356297,29.3382479 63.5990375,29.2998751 63.1628658,29.314725 C61.9792719,29.2837138 60.8036695,29.5193231 59.7222835,30.0043339 L59.7222835,39.1807863 L61.1607666,39.9846249 L61.1607666,40.6150036 L52.9588895,40.6150036 L52.9588895,39.9888556 L54.4352274,39.1807863 L54.4352274,26.6535961 L52.702318,26.1332164 L52.702318,25.7101434 L59.0324847,24.5382313 M74.9020653,24.9274585 L74.9020653,20.0325044 L73.1691559,19.4232793 L73.1691559,19.0382829 L79.5540018,17.8579094 L80.1596788,17.9467547 L80.1596788,38.9692498 L81.9220309,39.6123207 L81.9220309,40.1538541 L75.6128947,41 L75.120782,40.9407698 L75.120782,39.2104014 L74.977775,39.2104014 C73.8879768,40.3727097 72.359904,41.0167114 70.7716841,40.9830771 C67.3311018,40.9830771 64.8200656,38.3388711 64.8200656,32.944691 C64.8200656,27.2458983 67.7390927,24.4451553 72.1596941,24.4451553 C73.098073,24.396925 74.0356106,24.5617542 74.9020653,24.9274585 M74.9020653,38.3938706 L74.9020653,25.8074502 C74.4183649,25.3944464 73.7878719,25.197379 73.1565376,25.2616861 C71.4488648,25.3209163 70.393136,27.9143535 70.393136,32.5385409 C70.393136,36.6931173 71.1502323,39.0200186 73.4257274,38.9396347 C73.9670513,38.9430193 74.4915509,38.7491673 74.9020653,38.3938706 M88.8410503,24.5382313 L89.3878421,24.5974616 L89.3878421,39.1807863 L90.8305313,39.9846249 L90.8305313,40.6150036 L82.6286542,40.6150036 L82.6286542,39.9888556 L84.1007859,39.1807863 L84.1007859,26.8862862 L82.3384339,26.1882159 L82.3384339,25.701682 L88.8410503,24.5382313 M89.4172847,20.5951914 C89.3693353,22.1077618 88.1201263,23.2998968 86.6160282,23.2690125 C85.6250733,23.3083583 84.6921623,22.7990207 84.1853284,21.9417903 C83.6780738,21.0846022 83.6780738,20.0169776 84.1853284,19.1597472 C84.6921623,18.3025168 85.6250733,17.7931792 86.6160282,17.832525 C88.1428392,17.8136983 89.3966749,19.0424291 89.4172847,20.5782685 L89.4172847,20.5951914 M107.835756,39.1807863 L107.835756,26.7509029 L106.102847,26.1416778 L106.102847,25.5409143 L112.411983,24.3605407 L113.047103,24.4197709 L113.047103,26.2812919 L113.219553,26.2812919 C114.718183,24.9926963 116.623542,24.2819338 118.594937,24.2759261 C121.341514,24.2759261 122.552868,25.5832215 122.552868,28.5066557 L122.552868,39.1554019 L124.025,40.0015478 L124.025,40.6150036 L115.810505,40.6150036 L115.810505,39.9888556 L117.282636,39.1807863 L117.282636,28.7689609 C117.282636,27.1697451 116.588631,26.530905 115.288949,26.530905 C114.509561,26.5089898 113.746155,26.7535683 113.122813,27.2247446 L113.122813,39.1765556 L114.569708,39.9803942 L114.569708,40.6150036 L106.363625,40.6150036 L106.363625,39.9888556 L107.835756,39.1807863 M98.9104317,31.3708596 L98.9104317,29.2851099 C98.9104317,26.1459086 98.229045,25.1178413 96.2984493,25.1178413 C96.0801532,25.1233836 95.8622777,25.1431834 95.6465052,25.1770715 L92.210129,29.8604891 L91.7264286,29.8604891 L91.7264286,25.545145 C93.5834177,24.9039779 95.5299965,24.5640811 97.4929791,24.5382313 C101.69907,24.5382313 104.134397,25.7101434 104.134397,29.2512641 L104.134397,39.405015 L105.640177,39.8027035 L105.640177,40.2003921 C104.683712,40.6946259 103.619571,40.9404313 102.544494,40.9153854 C100.470891,40.9153854 99.478254,40.2300072 99.0239962,39.0877102 L98.876783,39.0877102 C97.99771,40.2850067 96.748501,40.9703849 94.7884627,40.9703849 C92.2900448,40.9703849 90.5823719,39.4007842 90.5823719,36.6888866 C90.5823719,34.0616035 92.2017169,32.6358477 95.495086,32.005469 L98.9104317,31.3708596 M98.9104317,38.3938706 L98.9104317,32.1112372 L97.858909,32.1958518 C96.2101214,32.3396966 95.6170626,33.397379 95.6170626,35.7369724 C95.6170626,38.2754102 96.4582808,38.935404 97.6023375,38.935404 C98.1003386,38.9811805 98.5886658,38.7789093 98.9104317,38.3938706 M45.6571158,31.3708596 L45.6571158,29.2851099 C45.6571158,26.1459086 44.9757291,25.1178413 43.0451334,25.1178413 C42.8268373,25.1233836 42.6089618,25.1431411 42.3931894,25.1770715 L38.9568132,29.8562584 L38.4773188,29.8562584 L38.4773188,25.545145 C40.3329199,24.904401 42.2779425,24.5645465 44.2396632,24.5382313 C48.4457541,24.5382313 50.8810806,25.7101434 50.8810806,29.2512641 L50.8810806,39.405015 L52.3868612,39.8027035 L52.3868612,40.2003921 C51.4303961,40.6946259 50.3662551,40.9404313 49.2911783,40.9153854 C47.2175755,40.9153854 46.2249381,40.2300072 45.7706803,39.0877102 L45.6276732,39.0877102 C44.7486002,40.2850067 43.4993913,40.9703849 41.5393529,40.9703849 C39.040935,40.9703849 37.3332621,39.4007842 37.3332621,36.6888866 C37.3332621,34.0616035 38.9526071,32.6358477 42.2459762,32.005469 L45.6571158,31.3708596 M45.6571158,38.3938706 L45.6571158,32.1112372 L44.6055931,32.1958518 C42.9568055,32.3396966 42.3637467,33.397379 42.3637467,35.7369724 C42.3637467,38.2754102 43.2049649,38.935404 44.3490216,38.935404 C44.8470228,38.9812228 45.3353499,38.7789093 45.6571158,38.3938706" id="path98"></path>
        </g>
    </g>
</svg>