<?xml version="1.0" encoding="UTF-8"?>
<svg enable-background="new 0 0 955.1 463.5" version="1.1" viewBox="0 0 955.1 463.5" xml:space="preserve" xmlns="http://www.w3.org/2000/svg">
<path fill="#000000" d="m645.5 120.1c1.8 0.3 1.9 2.9 3.8 2.9l-0.2-0.2c1.7 2.2 4.3 3.1 6.9 4.4 1.3-1.7-0.4-4.2 2-5.6 4.3-1.1 4.9-1.4 9.2-5.3-1.1-18.4-13.1-24.1-25.7-26.5-0.8 1.7-0.3 3.6-0.6 5.3-0.8 5.8-3.1 10.5-8.8 13-4.9 2.1-9.1 1.1-12.5-3.1-1.7-2.1-3-4.4-4.5-6.6-2.3-3.3-5-5.9-9.5-4.8-1.4 0.3-2.6-0.1-3.8-1.8 4.9-4.1 10.5-5.9 16.9-5.4 1.9-5.8 7.1-10.1 6.7-18-0.8-2.3-3.7-4.4-6-7-3.4-3.7-3.6-6.7-1-10.3 1.5-2.1 3.4-3.1 5.9-3 3.7 0.1 7.2-0.2 10.7-1.7 3.1-1.4 6.5-0.6 9.6 1.2 2.6 1.5 5.2 3.1 7.8 4.4 2.8 1.4 5.7 1.6 8.5-0.9-0.4-1.8-1.9-2.7-3.1-3.7-14.8-13.3-29.8-26.5-44.6-39.9-1.7-1.5-4.7-2.6-3.2-6.1 3-1.8 5.6-0.5 8.1 1.3 12.7 9.1 25.8 17.7 39 26.2 4.9 3.1 9.8 6.2 15 9.4 2.1-5.1 0.3-10.8 4.1-15 2.9 0.5 4.2 2.9 5.6 4.8 1.4 2 1.7 4.7 4.2 6 3.3-1.7 3.5-5.5 5.9-8.3 4.6 3.9 4.4 9.7 6 14.5 2 0.2 2.9-1.2 4.1-2.1 7.5-5.3 12.7-4.6 18.5 2.6 1.5 1.9 2.6 4.3 5.3 5 2.1-0.8 1-3.4 2.8-4.6 2.3 1.4 2.8 4.4 5.2 6 1.2-2.4-1.8-4.3-0.4-7 7.5 7.9 15.8 15 12.8 27.7 5.7 1.6 6.1-4.7 10.4-5.8 1.6 7.8-3.4 13.1-7.3 18.8 2.3 1.8 5.2 1 7.2 2.7-0.9 2.9-3.5 4.8-4.5 7.6 0.1 0.3 0.1 0.8 0.3 0.9 7.9 4.7 8.7 12.4 8.7 20.5 0 1.8-0.5 3.6-0.4 5.5 0.3 11.2-4 21.7-4.7 32.7-2.4 1.2-4.5 1.2-7.2 0.8 0.7-10.3-8.1-13-14.5-19-0.1 6.9 5.8 9.8 7.8 15.1-5.5-0.6-8.6-4.4-11.9-8-1.9 4 4.4 6.6 1 10.4-2.1 0.3-3.2-1.7-5.3-2-3 3.4-0.1 7.1 0.1 10.7-2.6 1.2-3.3-2.2-6-1.8-1.4 1-2.9 2.7-4 4.7 3.2 2.8 5.1 3.1 8.3 1.1 2.3-1.4 3.9-3.6 5.5-5.7 0.7-0.9 1.4-1.9 2.2-2.7 4.4-5.1 9.2-5.7 12.8-0.1 6.5 9.9 16 16.3 25.1 23.4 7 5.4 12.8 11.7 14.9 20.6 0.3 1.2 1.1 2.1 2 2.8 7 5.4 10.2 13 11.9 21.3 0.3 1.4 0.8 2.9 1.4 5.1 5.9-4.1 11.4-7.9 17.1-11.9 1.3-5.3 3.8-10.2 5.9-15.3 1.1-2.8 1.8-5.7 1.8-8.8-0.1-6.5-3.5-10.2-10-10.7-4.4-0.4-8.6 0.7-12.7 2.2-1.5 0.5-3.1 1.2-4.8 1.8-1.9-9-9.8-4.8-15.5-7.9-2-3.3-6.5-4.3-10.4-5.5-1.4-1.4 0.3-2.9-0.5-3.6-1.9-3-5.4-3.5-7.4-6.4 3.7-4-0.6-7.5-1-11.3 1.7-5 1.7-5 0.9-12.2 2.3-1.4 2.7-3.9 2.6-6.7-0.1-2.5-0.9-4.9 0-7.7 3.9 1.2 5.7 5.9 10.4 5.9 0.5 7.1 9.9 6.9 10.3 14 2.9-0.6 5 0 6.6 2 1.8 2.2 4.1 3.4 6.9 2.7 3.7 3.1 4.7 8 7.8 10.3 1.9 1.4 3.2-0.1 4.7 0.8 4.4 6.9 8.7 14.2 15.8 20.3 3.5-9.8-1.1-17.2-4.1-25.4-6.5 0.4-11.8-1.7-16.3-6-2-4.5-1.5-9.4-1.8-14.3-6.8-6.7-15.2-10.7-23.8-14.3-0.5-5.4 2.8-8.5 6.2-11.4 3.1-2.7 6.7-5 9-8.8-1.7-2.3-4.3-1.7-6.4-2-3.7-0.6-7.1-1.4-9.4-4.8-1.7-2.4-4.9-2.6-7.5-4-1.1-1.2-0.8-3.2-2.2-4.2-1.8-1.6-4.4-1.7-5.9-3.2-1.3-2.2 0.7-3.6 0.6-5.8-0.9-2.3-2-4.9-3.2-7.9 5.7 0.4 10.5 5.4 15.6 1.9 10.3 2.8 10.3 2.8 14.4 0.7 7.1 5.6 7.1 15.5 12.3 22.3 4.9-0.9 8.7-3.9 13.4-5.1 2.1 2.4 1.2 6.1 3.6 8.8 3.1-4 3.3-10 9-11.3 0.9-2.2 1.1-4.6 2.7-6 8-7.1 11.9-17.1 17.9-26.2 3.9 3.9 3.2 8 2.7 11.8-0.4 3.3-0.3 6.3 1.3 9-0.8 6.1-9.2 8.5-7.2 15.8-2.5 3.1-5 6.2-7.3 9 0.1 1.8 1.9 2.2 2.2 3.8-5.6 6-11.3 12-16.9 18.1 1 2.3 3 3 4.7 4 6.4 3.8 8.2 7 6.1 16.5-0.4 1.9-1.2 3.8-1.9 5.7-1.3 3.5 0.2 6 2.8 9.2 4.8-8 9.2-15.5 13.6-22.9 1.8-0.7 2.4 1.5 4.6 0.7 3.6-2.3 4.6-7.5 7.7-11.1 1-1.1 1.8 0.5 3.2 0.2 4.3-3.2 5.3-8.9 8.1-14.2 8.8 0.2 11.7-8.2 18.2-14 0.4 7-1.4 13.3 2 18.3 0 7.3-8.5 11.8-5.2 19.4-2.9 6.2-11.6 8.4-10.7 16.7-5.7 5-12.8 6.1-19.9 7.2-4.6 0.7-9.2 1.3-13.8 2.3-2 0.4-4.3 0.7-5.9 2.5 0.3 3.2 2.5 2.6 4.4 2.3 5-0.8 10-0.9 15-0.7 3.6 0.1 7.3 0.7 11.1 1.1 2.1 5.4 8 4.9 11.1 7 2.2 1.8 0.3 3.6 1.1 4.4 2 3.1 5.2 3.9 7.2 6.1 0.2 1.8-2.2 0.7-2.3 2.4 0.3 3.7 4.2 4.7 5.7 7 1.1 2-0.2 3.7 0.2 4.8 0.6 2.3 2.2 3.4 3.2 4.9 0.4 1.6-1.7 1.5-1.7 3 1.1 2.5 3.5 4.2 5.2 6.6-1.1 3.6 2.5 5.6 3.4 8.6 0 1.5-2 1.3-2.1 2.7-0.3 3.8 3.1 6.5 3.2 10.6-4.7 0-8.7-4.8-13.2-1.3-3.6-0.9-5.3-5.3-9.6-4-2.1-5.2-7.7-4.3-11.1-7.1-1.5-1.6-0.7-4-2.8-6.1-0.7-0.7-2.3 0.1-3.6-0.3-2.6-2.8-2.2-8.7-8.3-7.9-2.5-5.2-2-10.7-1.6-16.2 0.3-4.2 0.6-8.3-0.5-12.4-0.8-2.9-1.9-5.7-4.8-7.1-2.3-0.3-4 0.5-6 1.7-2.6 11.8-2.7 24.4-8.6 35.6 1.9 1.4 3.5 0.2 4.9-0.2 9.8-2.3 16.9 6.4 13.3 14.8-1 2.3-1.5 4.8-2.4 7.1-1.3 3.6-1.3 7.2-0.1 10.8 0.4 1.1 0.7 2.2 0.9 3.4 1.3 5.9 0.1 10.8-5.4 14.3-2.8 1.8-5.8 3.3-8.7 4.9-1.6 0.8-3.4 1.4-4.7 3.4 1.7 2.3 3.4 4.7 5.3 7.3-0.6 5.4-4.3 8.5-8.9 11.6-2.3-5.8-4.8-11.2-10-14.9-8.2 2-16.2 4.8-24.5 6.6-30 6.5-60.1 7.3-90.3 2.2-18.9-3.2-37.3-8.4-55.7-13.9-7.5-2.2-15.1-3.8-22.9-4.4-0.9 1.7 0.2 2.7 0.7 3.8 1.5 3.4 2.3 7 1.9 10.7-0.5 4.6-3 7.6-7.6 8.8-4.5 1.2-8.7 0.6-12-2.9-2.9-3.1-3-5.5-0.4-10.7-6.2-1.1-11.3 0.6-16.6 4 3.9 4.5 8.4 8.3 8 14.7-0.8 0-1.4 0.2-1.7 0-9.9-5.7-20.4-5.2-31.1-3.2-7.3 1.4-14.6 3.2-22.1 3.8-2.4 0.2-4.7 0.1-7-0.2-8.8-1.4-13.7-7.6-13-16.5 0.4-4.5 1-8.9 1.4-13.4 0.3-3.3 0.3-6.6-1.5-9.9-4.3 1.5-7.8 4-11.7 6.3 2.3 5.9 6 12.1 0.5 17.6-4 4-9.2 4.2-14.3 1.5-3 1.4-4.1 4.4-5.7 6.8-3.7 5.8-6.6 7.3-13.3 6.1-3.6-0.6-7-1.2-9.6 1.5-2.8-0.2-4.5-2.2-7-2.7-1.4 0.2-3 0.5-4.6 0.7-5.7 0.7-10.1-0.8-12.7-6.5-1.1-2.6-2.7-5-5.3-6.4-1.6-0.5-2.9-0.2-4.4 0.5-5.8 2.5-10.6 0.1-12-6-0.7-3.1-0.5-6.3 0.7-9.3 0.4-1.1 0.9-2.1 1.5-3.4-3-3-6.7-4.7-10.4-6.8-2.1 1.9-2.3 4.4-2.5 6.9-0.3 4.7 0.9 9.3 1.5 13.9 0.3 2.3 0.5 4.7 0.3 7-0.5 6.1-4 10-10 11.4-9 2.2-17.9 0.7-26.7-0.8-5.4-0.9-10.8-2.2-16.3-2.6-6.6-0.5-13 0-19 3.1-0.7 0.4-1.4 0.9-2.5 0.3-1.3-6.7 4.1-10.2 7.5-14.7-4.4-3.1-10.8-4.4-16.1-3.2 0.1 0.5 0.1 1 0.3 1.4 2.2 6.9 0.2 10.4-6.9 11.8-4.6 0.9-8.8-0.6-11.7-4-3.1-3.7-3.1-8.3-1.2-12.7 0.9-2 1.9-3.8 3.1-6.1-3-0.7-5.5 0.3-8 0.7-20.9 4.1-41.4 10.1-62.2 14.9-21.8 5.1-43.9 8.1-66.4 6.6-10.9-0.7-21.3-3.5-31.9-5.8-9.1-2-18.1-4.4-26.7-7.5-4 3.8-6.2 7.3-9.1 14.7-5.1-1.5-8.3-5-10.5-9.2 0.7-4.6 5.3-6 6.6-9.9-2.4-2.1-5.4-3.2-8.3-4.5-3.3-1.6-6.6-3.3-9.1-6.1-3.2-3.6-5.2-7.6-2.6-12.3 3.1-5.7 2.5-11.2 0.1-16.8-0.5-1.1-0.8-2.2-1.1-3.3-2.3-8.5 1.3-13.5 10.3-14.1 4.8-0.3 9.2 1.3 13.7 2.5 2 0.6 3.9 1.7 6.2 1.5 1.1-11-9.3-26.2-19.4-29.9-2.1-0.2-4.4 0.2-5.7 2-3.2 4.2-6 8.6-9 12.9-9.5 7.6-18.6 15.7-25.8 26.2-3.2-4-1.3-10.6-6.5-12.8-1.3-4.2 0-8.3-2.3-11.6 1-2.9 1-5.7 0.9-8.6-0.1-3 1.7-4.9 3.5-7.2 3.7-5.1 9.4-6.8 14.4-10.3 7-1.1 14.3 1.7 22 1.3-3-6.1-5.8-8-26.5-18.8-0.1-3.7-1.9-6.6-5-8.9-1.9-1.4-2.2-3.6-2-5.7-1.7-1.9-3.2-3.7-4.9-5.6 1.5-3.5-0.6-6.2-2.2-9.5 3.1-2.5 0.9-5.7 0.9-8.7s1.5-5.9 0.7-8.9c1.4-2.7 3.6-4.8 3.4-9.1 6.6 7.5 12.3 14 17.9 20.5 0.9 1.3 2.5 0.3 3.7 1.4 2.9 4.9 5 10.7 10.1 13.7 3.2 10.3 5 20.4 2.7 31 5.8 3.8 11.3 7.4 17.1 11.2 1.8-3.1 1.2-6.1 1.4-9.4-5.2-5.3-9-11.7-10-19.8 1.8-4.1 2-8.7 1.7-13.4-0.5-6.9 1.9-11.7 9.3-13.6 0.9-6.3 4.6-10.5 11.2-12.8-2.1-1.7-3.8-2-5.5-2.1-7-0.1-10.7-4.8-13.1-10.3-1.2-2.7-2.6-5.3-3.9-8-2.4-4.7-4.2-9.6-5.1-15.2 8.8-0.4 16.1 3.7 24.3 6.3 1.2 1.7 3.2 3.4 5.8 3.8 1.8 2.2 2.5 5.1 5.2 5.9 3.2 6.6 0.9 14 3.6 21.1 3.3-2.9 3.3-7 5.6-10 3.8-1.2 7.2-3.5 10.4-6.3 3.4-2.9 8.1-2.5 12-4.3 2.6-1.1 5.4-1.6 7.3-4.2 3.5 0.9 5.8-0.7 8-3 1.8-2 3.3-4.6 6.2-5.3 4.2 9.9 1.2 18.8-4.1 26.5-2.9 4.2-7 8.4-12.4 10.3-2 0.7-3.9 1.8-6.3 2.9-3.8-0.6-8-1.2-12.3-1.9 0.2 1.9 1.5 2.5 2.4 3.4 1.4 1.5 2.8 3.1 3.2 5 1.3 6 2.5 12 3.4 18.1 0.5 3.3 0 6.7-2.5 9.4-1.3 1.5-1.6 3.3-1.7 5.1-0.2 5.8-3.1 9.6-8.3 12-4.1 1.9-8.3 3.6-10.6 7-4.2 2.3-7.7 0.8-11.5-0.1-1.6 6.6 2.6 10.1 6.2 14.4 3.8-4.3 8.6-6.1 13.4-8.1 2-0.8 3.9-1.8 5.9-2.7 5.7-2.7 8-7.3 7.4-13.2 3.5-4.2 7.4-7.7 10.1-12.2 1.2-2 3.3-2.8 5.3-3.5 3.2-1.1 6.2-2.3 8.6-5 5 1.3 7.9-2.9 13-4.6-2.5 8.5-3.2 16.5-9.4 23.1-5.3 5.5-12.2 8.5-17.9 13.3-2.2 1.9-5.3 2.7-6.8 5.5h-0.2l0.1-0.2c2.3 0.6 4.2-0.7 6.2-1.4 4.1-1.5 8-3.3 11.9-2.8 5.7 2.9 11.4 3.6 17.4 5.7 1.5 2.8 4.6 3.9 9 3.6-1.1 5.3 4.5 6.3 6.3 10.2-6 1.8-10.8 5.6-16.8 6.7-1.8-0.3-3.6-0.6-4.8-0.8-1.9 0.2-2.1 1.7-3.4 2.3-6.2-1.1-9.9-8.9-17.1-6.7-3-1.7-5.3-3.7-7.6-5.6-2.5-2.2-5.2-4.2-8.3-5.5-8.2-3.5-16.2 1.2-17.1 10.1-0.2 2.1-0.1 4.4 0.2 6.5 1.1 6.1 2.7 12 2.4 18.5 6.1 3.6 12.1 7.2 17.8 10.6 2.2-0.7 2-2.6 2.5-3.8 2-5.2 5.7-8.5 10.9-10.3 3.8-1.3 7.8-2 11.8-2.1 9.7-0.3 19.1-2.2 28.3-5.5 7.1-2.5 14.2-4.7 21.3-7 5.4-1.8 7-4.5 6.2-10.2-0.4-3.1-1.4-6-3.1-9.7-1.5 4.6 0.1 8.3 0.4 12.5-4.9-1.5-7.8-4.9-10.3-8.8-1-1.5-1.5-3.3-2.1-5-1.6-4.3-3.4-5-8.1-3.5-1.4 1.1-0.8 3.2-2.1 4.4-4.1-0.9-5.7-5-4.5-11.7 2.2-2.5 5.8-3.2 8.2-6.1-3.8-4.6-3.7-10.8-6.2-16.1 2-2.9 2.1-6.2 2-9.5-0.1-3.6 0.1-7 3.8-9.6-3.7-2.4-6.8-4.5-10-6.5-0.2-2.2 2.2-2.5 2.6-4.5-2.2-4.8-5.3-9.9-2.5-15.7 1.5-0.5 2.2 0.7 3.1 1.3 4.6 2.7 7 2.2 10.3-2 3.1-4 3.7-8.9 4.2-13.6 0.4-4.1 0.4-8.3 0.9-12.4 0.2-1.9-0.5-3.6-1-5.3-1.4-4.7-1.1-9.2 1.8-13.2 3.5-1.2 5 2.7 7.8 2.8 3.1 0 4.7-2.2 6.3-4.3 3-4.1 5.4-8.7 11-10.4 2.2-0.7 2.9-3.6 3.1-5.9 0.2-2.6 0.2-5.3 0.3-8 0.2-7.7 4.3-11.5 12.1-11.2 4.8 0.2 9 2.1 13.2 4.2 1.2 0.6 2.2 1.6 3.8 1.5 1.2-1.4 1.1-3.3 1.6-5 0.5-1.6 0.7-3.2 1.2-5.3 2.7 2.1 3.8 4.8 5.5 7.1-0.6 2.8-3.9 3.7-4.8 6.7 2.5-0.3 3.8-2.2 5.8-3 2.5 0.5 3.4 3.4 6.1 4.5 0.4-2.7-2.6-3.8-2.6-6.3 1.7-2.8 4.3-4.5 7.8-5.9 0.5 3.9-1.2 7.3 0.3 10.7 2 1.2 4.2 0.7 6.3 0.7 5.1 0.1 9.9 1.1 14.4 3.6 3.8 2.1 5.2 4.7 4.6 9.1-0.5 3.3-1.3 6.5-2.8 9.5-0.9 1.8-1.6 3.7-0.9 6.1 3.3 1.6 4.9 6.1 9.2 6.1 1.6 2.1-0.1 3.8-0.2 5.9 5.1 5.1 4.9 12.6 7.6 18.9 0 1.2-1.4 1.6-1.3 2.3 5 9.8 7.8 19.5 6.2 30.2-0.6 4.3-0.1 8.3 2.9 12.1 6 1.2 9.9 5.9 14.1 10.1 3.6 3.6 7.7 5.6 13.3 3.6-0.2-15.6-7.4-27.3-19.5-36.8 6.6-0.8 6.6-0.8 21.4 8.8 1-2.3 0.5-4.5-0.1-6.7-2.3-7.9-7.6-13.5-13.6-18.8-2.2-2-4.6-3.7-7.6-6.2 4.2-1.1 7.4 0.2 10.6 1.4 3.2 1.1 6.1 3.1 10 3.8-0.5-3.4-2.2-5.4-3.8-7.4-2.7-3.4-5.7-6.5-8.5-9.8-1-1.2-2.7-2.1-2.4-4.1l-0.1 0.2c2.9 0.7 5.8 1.3 8.6 2 0.2-0.3 0.4-0.6 0.6-0.8-5.1-7.3-13.6-10.8-20.7-16.7 6.9-2.6 12.7 0.5 19.4 1-3.3-7.7-11.3-10.6-15.2-17.7 6.4-1.3 10.7 3.7 17 4.9-2.5-4.8-6.4-6.6-9.1-10.2 6.5 0.7 11.8 3.2 16.8 6.3 11.2 6.9 19.5 16.5 26.2 27.6 2.6 4.4 4.9 9 7.5 13.7 3.7-2 7-4.2 10.1-7-0.9-6.8-8.4-4.3-11.3-8.2-1.1-1.2-0.5-2.9-1.3-4.7-3-1.7-6.7-3.4-6.5-8.1-5.3-1.3-8.9-3.7-8.1-9.7 0.2-1.8-0.8-3.6-2-5-2.9-3.6-2.5-7 0.2-10.4 2.3-2.9 3.5-6 2.6-9.4 0.6-2 1.8-3.1 3.4-4.2 4.5-1.2 10.5 2.3 13.6-3.3 4.1-0.7 5.7 2.7 8.3 3.5 2.1 0.4 2.9-1.9 4.1-1.7 4.1 0 5.4 3.4 8 4.9 4.3 0.8 4.3 0.8 7.1 3.4 5.3-0.4 9.4 4.4 15.5 4.3 0.4-7.2 0.8-14.4 1.2-21.8 1.6 0.1 2.8 0.2 4.1 0.3 0.1 0 0.2-0.2 0.4-0.3 0.5-1.6-1.5-2.5-1.1-4.6 8.9-0.2 17.9 0 26.7 0.6 0.7 2.2-1.3 3.2-0.8 4.8 1.4 0.9 2.7-1.3 4.3 0 0.6 6.5-0.3 13.4 0.5 20.1 6 2 9.5-4.9 14.8-3.2 1.1-1.3 1.9-2.3 2.9-3.4 4-0.6 9.1 1.4 10.9-3.9 9-2.2 17.7-2.2 26.4 0.2 4.7 2.5 7.2 6.3 6.6 11.8 1 3.7 5.9 5.6 4.3 10.8-5.1 3.2-4.1 10.1-6.8 14-2.3 2-4.3 1.4-6.3 2.4-0.1 3.7-2.6 6-5.9 7.7-0.9 4.7-3.1 8-8.3 8.6-1.8 0.2-3.2 1.7-3.6 4.3 4.1 3.6 8.4 7.5 13 11.5 2.2-2.9 2.6-6 3.7-8.9 5.2-13.8 11.7-26.9 22.7-37.2 6.9-6.4 16.1-11.2 24.3-11.9-1.3 3.3-3.9 5.2-6.4 6.8-5.5 3.6-9.2 8.6-12.2 14.2-0.3 0.6-0.7 1.2-0.4 2 1.9 1.1 4.1-0.6 6.5 0.2-1 3.2-3.9 5.2-5.1 8.6 7.4 0.7 14.6-2.7 21.4 1 1 0.6 2.1 1.1 2.4 2.7-8.5 2-16.6 5-22.3 12.2-2 2.6-3.8 5.4-4.4 9.2 7.4-0.4 13.9-5 22-2.2-10.7 7.8-19.6 16.3-23 29.9 6.5-3.2 11.9-7.1 19.5-5.8-8.7 11.5-17.3 22.7-15.3 38.4 11.4-0.2 21-5.2 31-9.4 1.4-2.9 2.8-5.7 4.2-8.5-3.5-2.6-4.7 1.5-7.6 2 0.2-5 2.3-8.4 6.1-10.8 2.9-1.8 6.1-2.5 9.5-2.8 5.8-0.5 11.6-1 16.6-4.5 2.7-1.8 5.4-0.9 8 0.5 2.4 1.3 4.6 2.8 7.4 1.3 1.6 2.2 0.9 4.4 0.9 6.5-0.7 0-1.5-0.1-1.5 1 0.7 0.4 1.2 0.2 1.3-0.8zm-198.1 67.3l-0.1-0.4 0.1 0.2 1.2 0.9c0.3 0.4 0.6 0.7 0.9 1.1 0.5 0.8 0.9 1.7 2 1.8 0.1 0.1 0.2 0.3 0.2 0.3s-0.1-0.1-0.3-0.2c0-1.4-0.5-2.1-2.1-1.7-0.1-0.5-0.3-1-0.9-1.1-0.2-0.4-0.4-0.9-1-0.9zm294.1 45.7c-0.4-0.1-0.5 0-0.5 0.3 0.3 0.1 0.4 0 0.5-0.3 0.6-0.1 0.9-0.4 0.9-1.1 1.1-0.5 1-1.4 0.8-2.3 2-2 2-2 0.7-4.7-0.2 1.9-0.4 3.3-0.6 4.8-0.5 0.7-0.8 1.4-0.8 2.3-0.6-0.1-1 0.2-1 1zm-8-53.4c0.4 0.4 0.9 0.8 1.3 1.2 0 0.3-0.5 0.7 0.2 0.9-0.1-0.3-0.2-0.6-0.4-0.8-0.4-0.4-0.9-0.8-1.3-1.1l-0.1-0.2h0.3zm-198.9 84.7c-0.1 0.3-0.3 0.3-0.3 0 0 0 0.2-0.1 0.3-0.1 0.4-0.4 0.8-0.8 1.3-1.2 0.4-0.8 1.6-1 1.7-2.1 0.6 0 1-0.2 1.2-0.8 6.8-3.6 13.9-6.2 21.4-7.9 19.3-4.5 38.6-3.8 58-0.6 21.9 3.6 43.1 9.9 64.5 15.2 15.7 3.9 31.4 7.3 47.6 8.4 14 0.9 27.9 0.4 41.8-1.2 20.5-2.4 40.2-7.4 58.6-16.9 2.1-1.1 4.8-1.6 5.8-4.2 0.9 0.1 1.7 0.1 2.1-0.9 0.7-0.3 1.4-0.5 2.2-0.8-0.2-0.3 0.1-0.4 0.1-0.1 0.1 0.7 0.3-0.2-0.2 0.2-0.7 0-1.6-0.3-1.9 0.8-0.9-0.1-1.8-0.2-2.1 0.9-1.3-0.4-2.3 0.3-3.3 0.8-35.9 16.3-73.6 22.4-112.8 18.8-5.3-0.5-10.7-0.7-15.6-3.5-2.3 1.2-4.6 0.6-7.1-0.2-4.5-1.4-9-2.5-13.4-3.8-22.7-6.4-45.4-12.9-68.7-16.9-20.4-3.5-40.4-2.4-60.3 2.7-6.3 1.6-12.4 3.8-16.9 8.9-0.6 0.2-0.9 0.6-0.7 1.3-1.5-0.1-1.7 0.9-1.6 2-0.9 0.4-1.3 0.8-1.7 1.2zm-89.2-74.2c-0.2-0.6-0.6-1-1.3-1-0.3-2.8-2.3-4.1-4.3-5.5 1 2.2 2.4 4.1 4.4 5.4 0.4 0.3 0.8 0.7 1.2 1 0.1 0.6 0.5 0.9 1.1 0.9 0.1 0.7 0.5 0.8 1.1 0.6l-0.1 0.4 0.1-0.2c-0.4-0.2-0.8-0.5-1.2-0.7 0-0.6-0.3-1-1-0.9zm303.8-78.1l1.2 1.2c0.2 0.4 0.5 0.8 1.1 0.7-0.6 2.1-3 1-4.9 2.3 3.2 1.4 5.4 3.5 8.7 3.4-1.3-3.7-1.3-3.7-3.8-5.7-0.1-0.7-0.5-0.8-1.1-0.6-0.4-0.4-0.9-0.8-1.3-1.2-0.3-0.4-0.5-0.8-0.8-1.2s-0.6-0.7-0.8-1.1c-4.5-3.7-9.5-6.3-15-8.3 2.4 3.6 4.6 7.2 8.2 9.9 0.5-1.5-0.8-2.7 0.4-3.7 2.3 0.3 3.9 2.5 6.4 2 0.3 0.4 0.6 0.7 0.9 1.1s0.6 0.8 0.8 1.2zm-614.9 39.7c0.7 0.1 1.1-0.1 1.1-0.8 1.3-0.1 1.9-0.7 2-2 0.4 0 0.5-0.2 0.4-0.4-0.3 0-0.4 0.1-0.3 0.5-1.5-0.2-1.9 0.7-2 2-0.6 0-0.9 0.3-1.1 0.9l-0.1-0.2zm456.9 56.6c0.1-0.4 0.4-0.8-0.1-1.1-0.5 0.5 0.1 0.7 0.2 1 0.3 0.7 0.1 1.6 1.2 1.8-0.7 1.1 0.8 2.6-0.5 3.7-3.9 0.1-5.2-2.7-6.4-5.7-0.9-2.3-1-5-3.4-7-1.5 5.4 3.4 8.9 3.1 13.4-3.9 2-5-1.6-7.1-3.1 0.4-1.3 0.5-2.5-1.2-3.3-0.3 1.6 0.4 2.4 1.3 3.2 0.2 1.5 0.6 3-1.2 3.8-3 0.1-2.3-3.9-4.7-4.4-1.1 1.6 0.6 3.4-0.1 4.2-1.7 1.7-3.5 0.4-5 2.5 18.2-2.3 35.7-0.8 53.3-1.1 0.6-3.8-0.3-6.8-1.6-9.7-2.4-5.3-4.1-10.9-5.1-16.7-0.5-2.5-1.1-5.2 1.5-7.5 2.6 5.8 5.1 11.2 7.6 16.7s4.4 11.1 4.8 17.2c24.7 12.4 50 16.6 76.3 8.2 1.7 0.8 2.7 1.5 2.8 2.9-2 5.4-7.8 3.6-11.4 6.2 5.7 3.2 10.8 3.1 13.4-0.1 3.6-4.5 3-9.5-2-15.5-5.8-0.3-11.2-2.3-16.4-5.1-3.9-2.2-7.8-4.5-11.9-6.4-5.8-2.6-11.6-5.1-18.2-3.9-2.3 0.4-4.6-0.1-6.9-2-0.2-3.9-2.2-7.3-4-10.9-1.3-2.6-2.9-5.3-0.7-8.2 2.7 1 3.4 3.9 5.9 4.9 1.4-0.4 2.5-1.9 4.3-0.8 3.4 3.5-0.6 8 0.9 12.2 5.1-2.4 2.2-8.5 6.1-11.2 3.6 3.2-0.7 8 2.1 11.3 3.8-2.7 1.4-9.1 7.1-10.4 1.4 3.8-1.3 7.4-0.4 11.5 4.5-4.1 3.2-9.9 5.4-14.2 1.9-0.7 3.4-1.4 5.1-0.1 2.2 6.2-3.4 11.1-4 17.9 4.1-3.2 3.9-7.8 6.8-10 0.5-12.5 0.5-12.5 4.9-13.1 3.4 8.9-2.1 16.5-4.1 24.6 6.9-8.4 10-17.7 8.1-28.6-11.9-9.6-24.6-17.6-38-25.1-3 7.2-3.9 14.4-6.7 20.8-2.8-0.6-1.9-3.5-3.7-4.6-4.7 5-7 11.3-10.3 16.9 0 3.3 1.7 6.8-0.9 10.4-3.4-3.3-6.4-6.7-8.4-10.6-2.9-5.6 0.1-11.4 0.4-17.5-5.6-2.6-11.8-3.4-17-7.4-3.2 5.6-3.7 11.1-3.1 16.8 1.1 10.1 1.5 20.3 7.2 29.3 0.8 1.2 1.2 2.8 1.5 4.2 0.5 2 0.3 3.9-1.6 5.8-9.5-15.3-10.2-32.5-11.9-49.5-3.1 0.7-2.3 2.7-2.3 4.1 0.1 9.8 2.8 19.1 5.5 28.4 1.5 5.5 3.7 10.8 4.8 17.4-5-4.3-7.1-9.2-8.6-14.2-1.6-5.4-2.8-11-4.2-16.4-0.4-1.4-0.4-2.9-2.3-4.1-1.7 13 7 22.9 9 34.7-3.3-1.2-5-3.8-6.4-6.6s-2.5-5.8-3.7-8.7c-1.1-2.7-1.4-5.7-3.4-8.1 0.5 8 4 15.2 7.1 22.7-4.2 0.7-5.1-3-7.5-4 0.1-1.1-0.3-1.7-1.3-1.8zm-293.8-74.3c0.2 0.8 0.7 0.9 1.3 0.4-0.2-0.5-0.5-0.7-1.1-0.7-0.5-0.9-1.3-1-2.2-0.8-0.5-1.2-1.4-1.1-2.3-0.7-0.2-1.2-1.1-1-1.9-1l0.1-0.4v0.2c0.6 0.3 1.3 0.7 1.9 1 0.7 0.6 1.4 1 2.3 0.7 0.3 1.1 1 1.3 1.9 1.3zm156.7 54.3h0.2-0.3c0.5-0.8 0 0.1 0.1 0zm149.3-29.6c1-0.3 0.8-1.2 0.9-2 1.2-0.8 1.9-1.6 0.1-3v3.2c-0.6 0.5-0.8 1.2-0.9 2l-0.1 0.1v-0.3zm-18.1 14.8c0.3 0.1 0.6 0.4 0.8-0.3-0.4 0.2-0.6 0.3-0.9 0.4v0.2l0.1-0.3zm136.2 8.6l0.1-0.1c0.2 0.6 0.4 1 1.1 0.5-0.4-0.5-0.8-0.5-1.2-0.4zm-147.7 9.1c0.3-1 0.9-1.8 2-2.2-0.2-0.3 0-0.4 0.1-0.1 0.1 0.6 0.3-0.2-0.3 0.1-0.8 0.5-1.5 1-1.7 2-0.1 0-0.2-0.1-0.3-0.1 0 0.2 0.1 0.2 0.2 0.3zm-73-156c1-0.3 2.1-0.2 2.8-1.1 6.2-1.1 12-3.7 18.3-4.5 4.7-0.6 9.3-1.1 12.9 2.8 0.8 1.9 0.8 3.7 0.3 5.5-0.5 1.7-2.1 3.1-1.6 5.1-0.9 0-1 0.3-0.5 1 0.5-0.2 0.6-0.6 0.4-1.1 3.7-3.9 4.1-8.6 3.5-13.4-0.8-0.6-1.2-1-1.6-1.1-0.6-0.2-1.3-0.4-1.9-0.5-10.2-0.9-19.8 1.5-29.1 5.1-0.5 0.2-0.7 0.7-0.6 1.2-1.3-0.5-2.3-0.4-2.8 1-0.5 0-1.1-0.5-1.6 0.2 0.6 0 1-0.1 1.5-0.2zm-14.2 183.8c0.7 0 1.5 0.3 2-1.4-0.9 0.7-1.9 0.1-1.9 1.5-0.2 0.1-0.5 0.1-0.6 0.1 0.1 0 0.3-0.1 0.5-0.2zm98.1-27.8c1.1-0.8 1.8-1.8 1.7-3.3 1.4-0.7 1.7-1.9 1.7-4-1.7 1.4-1.9 2.6-1.6 4.1-1.4 0.4-1.9 1.5-2.3 2.7-0.5 0.2-1.2 0.2-0.9 1 0.7 0.4 1.1 0.1 1.4-0.5zm-21.8-128.8c-2-0.5-2.2 1-2.7 2.3-6.9 7.9-11.5 17-14.6 26.9-0.5 1.6-1 3.3 1.4 3.9 0.3-0.2 0.8-0.3 0.9-0.6 4.3-9.9 8.5-19.8 12.8-29.7 1.2-0.6 1.3-2 2.1-2.9 0.1 0 0.1 0.1 0.1 0.1zm-0.4 152.5c-0.8-0.1-1.6-0.2-2.1 0.8 1.1 0.6 1.8 0.5 2-0.9 0.7 0.1 1.2 0.1 1-0.8-0.7 0-0.9 0.4-0.9 0.9zm-354.5 1.3c0.1-0.1 0.3-0.1 0.4-0.1-0.2 0-0.4 0.1-0.6 0.1 0-2.1-1.3-2.2-3.1-2.2 0.8 1.8 2.3 1.7 3.3 2.2zm278.6-18.2c1.4 0 2.3-0.8 3.1-1.7-1.5 0-2.7 0.2-3 1.8-0.3 0.1-0.5 0.1-0.6 0.1 0 0 0.3-0.1 0.5-0.2zm213.8-33.1c1.1-0.4 1.9-1.2 2.1-2.4-0.3-1.1-1.1-1.5-2.2-1.5-0.2-1.9-2-2.6-3.2-3.5-5.9-4.6-12-8.9-18.5-12.6-2.7-1.5-5.1-3.8-8.4-4.1l0.2 0.2c-2.4-2.9-5.8-3.9-9.1-5.1l0.2 0.1c-4.9-3.1-10.2-5.2-16.1-7.5-0.4 3.2-0.6 5.8 0.1 8.7 7.3 3.7 14.9 7.1 22.1 11.1 6.7 3.7 12.8 8.3 19.8 11.5 0.5 0.7 1.2 1.1 2.1 1 1.3 2.4 3.6 3.2 5.9 4 0.7 1.2 1.7 2 3.1 2.1 1.2-0.2 1.7-1 1.9-2zm-123.9 36.1c-1.9 0.7-3.2 2.2-5.2 3.8 3.5 0.1 5-1 5.2-3.8 1.2-0.5 1.5-1.2 0.4-2.2-0.6 0.6-0.6 1.4-0.4 2.2zm154.9-11c0.2-0.6 0.1-1.2-0.4-1.7-0.7 0.8-0.4 1.3 0.4 1.7 0.7 2.7 2.5 3.9 5.2 4-1.6-1.5-3-3.2-5.2-4zm-271-65.1c-1.9 3.9-1.9 4.2 1 7.6-0.3-2.8-0.6-5.2-1-7.6 1.8-0.8 3.1-2 4.3-4.8-2.5 1.6-4.1 2.6-4.3 4.8zm129 78c0.2 0.3 0 0.9 0.6 0.9 0.2-0.7-0.3-0.7-0.7-0.7 0-4.5-0.2-4.9-2.9-7.1 1 2.5 1.3 5 3 6.9zm117.4-146.3c-1.4 0.2-2.4 1.7-4.1 1.1-0.8-1.5-1.3-3.1-3-4.4-0.2 2.5 1.1 3.7 2.6 4.8 0.6 1.7 1.5 3.1 3.2 3.8 0.3 0.6 0.4 1.3 0.8 1.8 7.8 10 15.3 20.1 21.5 31.2 0.1 0.2 0.6 0.1 0.9 0.2 0.7-0.3 1-0.9 1.2-1.7-0.8-1.8-3.4-3.3-1.9-6 1.6-0.6 2.8 0.9 4.3 0.8 2.1 2.6 5.7 4.1 6.4 7.7-0.5 1.3-2.4 0.4-2.7 2 7.2 3 14.3 5.6 20.6 11.7 0.1-6.8-2.3-11.1-7.4-13.8-5.4-2.8-11-5.3-16.5-7.9-1.4-2.1-3.3-3.7-5.2-5.4-1.5-0.2-2.9-0.4-4.3-0.6-0.8-1.4-2.4-2.1-2.3-3.9 1.3-3.1 3.6-2.5 5.7-1.3 3.6 2 7.1 4.3 10.7 6.4 2.2 1.3 4.5 2.6 7.4 3-0.7-2.2-3.2-2.9-3-5.6 2.4-1.1 4.7-2.6 5.8-6.6-7.8 4.1-14.4 1.5-21.1-1.3-3.3-1.4-6.1-0.3-8.6 1.3-1.9-0.8-2.7-1.9-3.1-3.5 2.1-3.5 2.1-3.5 5.8-5 2.7 0.1 5 1.4 7.4 2.5 2.3 1.1 4.5 2.2 6.9 2.8 4.3 1.1 6.5-1.1 6.4-6l0.2 0.3-0.2-0.2c-3.6 3.1-7.5 2.9-11.7 1.1-2.9-1.2-5.5-3.1-8.5-3.7-4.6 0.2-6 4-8 6.9-1.8-1-2.6-2.3-2.6-4.1 3.1-6.5 4.3-7.8 9.3-9.7 3.9 0.4 6.5 3.2 9.4 5.3 2.1 1.5 4.1 3.5 7.3 1.3-0.7-1.8-0.9-3.6-2.4-4.9-1.4-0.1-1.8 2-3.3 1.7-8.3-6.5-12.7-9.5-22.9 4.6-0.9-0.4-1.8-0.8-2.6-1.2 0.6-1.8-0.1-4 1.4-5.6 0.2-0.9 0.3-1.9 0.5-2.8 3.5-0.6 5.8-3.1 8.4-5-3.9-0.2-6.8 1.3-8.3 5.1-0.1 0.9-0.3 1.8-0.4 2.8zm-492.4 74.3c-2.5 1.7-3.5 3.9-2.5 7.6 1.6-2.8 2.2-5.1 2.7-7.5 0.6-0.1 0.9-0.6 0.8-1.2 3.6-1.8 7.1-4.3 11.5-2-0.3 1.9-2.3 2.2-2.7 3.7-2.5 1.1-3.5 3.1-4 5.6 2-1.3 3.3-3.1 4.4-5 2-0.5 3.5-2.7 6.2-1.4 0.5 6.9-7.1 11.8-5.5 19.6 2.2-1.5 2.3-3.5 3.1-5.1 1.1-2.2 1.9-4.6 3.1-6.8 2-3.5 3.9-4.2 7.7-3.3-0.9 4.9-5.3 8.3-6.4 13.5 3-0.9 5.5-1.5 8-2.3 1.2-0.4 2.6-0.8 2.8-2.4l-0.2 0.2c3-1 3.8-3.7 4.4-6.2 1.8-7.1 5.5-14 3.3-21.8-0.3-0.9 0-2 0.2-3 0.1-0.5 0.5-0.9 0.7-1.2 1.5-1 2.9-0.9 4.3 0 1.1 5.6 3.2 8.8 6.6 9.8 1.9 0.6 3.6 0.5 4.6-2-1.4-3.2-5-5.1-6.4-8.7 3.6-6.6 9.1-2.4 14.1-2.6v-15.7c-3.9-0.2-4.2-0.2-5.2 1.2-1 1.3-1.6 2.9-2.3 4.4-2.3 5-5.1 6.3-10.4 4.9-4-1.1-5.7-4-6.3-7.6-0.8-5.2-1.5-10.5-3.1-15.5-0.1-0.2 0.3-0.5 1-1.6 6.3 4.1 14.6 3.1 20.3 8.3 2.6-0.5 3.3-3.4 5.6-3.5 1.3 0.9 0.6 3.1 2.5 3.5 1.4 0 2.2-1.6 3.7-1.3 1.3 0.8 1.2 2.8 3.1 3.6 1.1 0.2 2.6 0.2 3.9-0.8 1.2-0.9 1.7-2.5 3.5-2.9 1.2 1 2.4 2.1 3.6 3.2 1.3 0.1 2.4-1.7 3.7-0.2 1.3 1.3-1.4 2.9 0.5 4.1 1.1 0.1 2.3 0 2.9-0.3 1.3-1 1.2-2.6 2.6-3.3 1.4 3.8 2.7 7.2 6.5 9.6-0.5-2.9-2.8-4.5-1.9-7.6 10.2 6.2 13.1 17.2 18.7 27.1 1.8-4.9-1-8.6-0.8-12.2 3.5-2.2 5.4 2 8.5 2.1-1-7.2-10.2-9.5-9.4-17.1-1-2-3-3.6-3.2-5.9 1.6-1.5 3.4-0.4 5-1.2-0.2-2.4-2.4-4-2.5-6.3 0.2-1.1 1.6-1.6 0.9-2.8-0.7-0.8-1.5-1.7-2.9-1.9-1.1 0.3-1.7 2-3.4 1.8-4.2-2.2-9.4-2.9-12.2-7.8 2.3-1.2 3.9-0.2 5.6 0.3 1.9 0.6 3.7 1.4 5.7 2 1.8 0.5 3.6 0.6 4.4-1.7-5.3-2.9-18.8-5.1-23.8-3.9-2.4 0.6-4.6 1.5-5.7 4.2 11.7-0.6 20.7 5 20.5 13-4.1-2.4-7.3-5.9-11.5-8-4.6-2.3-9-0.7-13.1 0.9-2.7-2.6-2.2-5.1-0.8-7.3 4.4-7.1 6.1-8.9 16-7.8 2.6 0.3 5.2 1.4 7.8 0.3l-0.1 0.4 0.1-0.2c-1.5-0.6-3.1-1.2-4.6-1.8-10.5-3.8-15.5-1.8-20.9 8.1-0.9 1.7-1.5 3.7-3.6 4.9-2.4-5-0.2-9.4 1.7-13.4 2-4.1 7-5.5 11.2-8.5-6.8-2-9.6 4.2-14.2 5.6-1.9-2.4-2.9-5.1-5-7.1-1.4-1.3-2.5-3.3-5-2.5l0.1-0.3v0.2c4.7 6.8 6.2 14.5 6.7 22.4-1.2 1-2.3 0.9-3.5 0.2-1.3-2.1-1.7-4.6-2.4-7-1.4-4.5-3.1-8.8-6.6-12.1s-8.6-3.8-13.4-0.8c12.3 1.3 17.3 9.1 19.9 19.6-3.2 0.5-4.5-1.2-5.6-3.2-1.5-2.8-3.5-5.3-5.8-7.4-2.2-2-4.6-3.3-8.3-2.8 4.4 4 11.4 5 11.1 12.8-5.3-1.4-8.2-6.7-13.8-6.2 0.3 2.6 3.7 2.6 3.7 5-3.9 0.6-7.6 1.1-11.3 1.6 5.4 1.8 10.9 1.4 16.6 2.8-3 4.9-7.8 3.2-11.7 4.5-1.7 3.6-7 4.3-7.8 8.5 0.7 1.8 2.5 0.9 3.2 2.9-2.4 5.5-2.6 12.5-7.8 17.8-1.8-2.7-0.4-5.5-2.3-8.4-1.8 4.1-0.2 8.5-3.1 11.9-0.7-5-1.3-9.6-1.9-14.2-0.4-2.9-0.1-5.6 1.2-8.3 0.7-1.3 1.2-2.8 3.2-2.3l0.1-0.1c-0.4 3.1-0.9 6.1 0.6 9.3 1.3-4.5 2.6-9 4-13.7-0.3-1.3-2.6-0.6-2.6-2.6 0.2-2.6 2.8-4.2 4.4-7-13.7 3.6-17.8 9.7-18 19.5-0.1 2.6-0.4 5.3-0.8 7.9-1.1 8.2-4.1 14.7-14 16.2-0.2 0-0.3 0.5-0.7 1.1 3.7 4.7 9.6 4.6 14.9 5.9-0.5 2.6-2.3 4-3.7 5.9 2.6 2.6-1.5 3.9-1.2 6.1-1.4 0-1.7 0.3-1.8 1zm283.1 52c-4.4 0.8-4.7 1.2-3.1 5.3 1-1.9 2.8-3.2 3-5.4h0.3l-0.2 0.1zm-260.2-18.7c0.3-0.2 0.4-0.1 0.1 0.1-0.1-0.1-0.1-0.2-0.2-0.3 0.7-2.9-0.8-5.6-1.5-8.3-2 3.3 0.4 5.8 1.6 8.5zm218.1-59.7c2.7 0.7 5.4 0.1 7.9 0.3 0.5-1.2 0.2-1.8-0.4-2.2-2.6 0.2-5.1 1.1-7.5 2 0.2 0.3 0.1 0.4-0.1 0.1-0.1 0 0-0.1 0.1-0.2zm-313.1 27.6c0.2-0.3-0.1-0.5-0.1-0.3-0.2 0.6-0.3-0.2 0.2 0.2 1.1 1.5 2.1 3 2.9 5.1 1.2-1 2.2-1.6 1.9-3.2-1.1-1.6-2.7-2.4-4.9-1.8zm600 1l0.2-0.1-0.3 0.3c-0.5-4.4-4.3-6.3-7-9 1 4 3.7 6.7 7.1 8.8zm-160.6 19.1c-3.5 6.2-2.2 12.8-1.8 19.4 1.1-6.5 2.1-12.9 1.7-19.5 0 0.1 0.1 0.1 0.1 0.1zm103.4-102.8c2.8-0.9 3.3-4.3 6.4-5-0.7-2 0.5-4.1-1.4-6-2.4 3.7-3.9 7.3-4.9 11.2v0.8h-0.1v-1zm-241.7 146.6c0.1-0.3 0-0.5-0.3-0.5 0.2 0.1 0.3 0.3 0.4 0.4 2.4 6.9 5.9 11.5 10.4 12.9-2.5-5.4-5.2-10.2-10.5-12.8zm368.2-98.9c-7.3 2.1-12.3 7.4-17 12.9-0.2 0.2 0.1 0.9 0.2 1.4l-0.3-0.3 0.2 0.3c6.1-4.1 12.4-8.1 16.7-14.3h0.2zm-368.4 112l0.2-0.1-0.3 0.1c-0.1-2.4-2.9-3-3.6-5.4 0.1-1 1.8-1.8 0.9-3.8-1.9-2.3-4.6-3.1-8.3-1.7 2 5.7 6.4 8.4 11.1 10.9zm291.3-96.1l0.1-0.1c0 2.4 1.8 3.8 3.1 5.5 4.8 5.9 10.7 11 14.6 18.8 1.4-4.2 0.4-7.2 0.1-10.4-5.4-2.4-10.1-5.7-14-10.1-1.2-1.3-2.1-3-3.9-3.7zm-375.1 90.8c1-0.2 1.2-1.1 1.5-1.8 4.6-11.9 7.6-24 7.1-36.8-0.1-1.9 0-4-1.2-6.1-0.3 0.8-0.5 1.1-0.5 1.4-0.1 13.7-2.4 27.1-6.5 40.1-0.3 1.1-0.6 2.2-0.4 3.4-0.6 0.2-1.1 0.5-0.3 1.3 0.2-0.7 0.2-1.1 0.3-1.5zm51.7-153.5c0.1 0 0.1-0.1 0.2-0.1-0.1 0-0.2 0.1-0.3 0.1 1-2.7-1.4-4.2-2.3-6.2-1.9-4.1-3.9-8.1-1.6-12.9 8.6-2.8 17.1-0.3 25.5 0.8-9.5-3.4-19.1-6.5-29.1-2-0.4 2.9-0.1 5.3 0.7 7.7 1.4 4.7 4.2 8.6 6.9 12.6zm-57.8 152.5c1.9-0.8 1.6-2.7 2.1-4.2 2-7 3.3-14.2 4.2-21.5 1-7.3 1.3-14.6 1.2-21.9 0-2 0.1-4.2-3.3-4.7 0 7.1 2.7 13.6 0.7 20.4-1.3 4.4-1.2 9.2-1.6 13.8-0.6 6.1-2.9 11.9-3.2 18.1-0.7 0.5-1.1 1-0.3 1.8 0.5-0.6 0.5-1.2 0.2-1.8zm273.1-113.8l0.1-0.1c-0.8 2.4 0.9 5.3-1.1 7.4-3.3-0.1-5.1-2.9-8.6-4.2 2.4 4 3.8 7.3 6.7 9.8 3.7 3.2 8.5 2.6 11.3-1.2 2.8-3.9 2.3-9.3-1.1-11.4-0.9 2.2 0.6 4.2 0.6 6.3-0.1 2.6-1.1 4.4-3.6 5.3-2.8 1-4.4 0.5-6.5-2 1.3-0.8 3-0.1 4.2-1.4 0.5-4.6 0.4-4.9-2-8.5zm-58-49.1c-1.8 0.2-2.9 1.6-4 2.7-12.4 12.3-19.5 27.5-24.1 44.1-0.3 1-0.8 2.3 0.6 3.1 1.9-0.4 1.9-2.2 2.3-3.4 5.6-15.6 13.1-30.2 23.3-43.3 0.8-1 2.1-1.8 1.7-3.4 0.2-0.1 0.4-0.1 0.4-0.1 0.1 0.1 0 0.2-0.2 0.3zm-258.9 70l0.1 0.1h-0.2c-1.5-5-5.1-9.2-6.2-14.4-4.1 0.6-5.9 3.3-7.6 5.8-2.7 3.9-5.4 7.7-10.8 7-0.7 2.6-1.2 4.7-1.6 6.3-2.5 4.1-6.5 5.1-10.4 6.7 2.1 2.8 4.4 2.8 6.6 1 1.4-1.1 2.6-2.5 3.9-3.9 1.2-1.2 2.5-2.2 4.4-1.9 1.3 0.1 1.4 1.8 2.6 2.2 0.7-0.3 1.6-0.5 2.1-1.5-1.4-2.2-3.1-4.7-1.3-7.2 1.1-1.4 2.6-0.4 3.4-1.5 0.5-2 0.9-4.2 2.6-5.8 1.7-0.3 3.1-1.7 4.9-1.5 2.4 1 2.9 3.2 4 5 0.9 1.4 1.1 3.5 3.5 3.6zm64.1-66.1h-0.3l0.4-0.2c-0.6 2.4 1.4 3.6 2.6 5 9.4 11.9 18.9 23.7 25.2 37.6 0.2 0.4 0.7 0.7 1.4 0.5 1.2-1.1 1.9-2.5 1.8-4.6-4.2-8.6-9.1-17.1-15.4-24.7-4.5-5.3-9.4-10.2-15.7-13.6zm12.1 33.7c-2.1 0.6-3-1.1-4.1-2.2-2.3-2.1-4.4-4.6-6.8-6.6-2.5-2.1-5.1-4.5-9.9-4.2 11.6 10 19.6 21.8 27.5 33.7 3.9-3.3 3.9-3.3 5.6-6.9-5.2-15.4-14.5-27.8-27.7-37.4 5.6 7.6 10.3 15.8 15.4 23.7v-0.1zm251.3 77.9c-1.2-0.9-2.4-1.7-3.7-2.6-11.2-8-11.7-18.8-1.4-27.9 1.8-1.6 4.2-2.7 5.4-5.1-0.5-2.8-2.2-4-5-4.2-3.7 1.7-7.3 3.6-11.4 4.5s-8.5-0.1-12.7 1.7c5.5 7.4 7.8 7.8 14.7 3 1.6-1.1 3.1-2.5 5.9-2.5-2.2 2.8-4.1 5.2-5.7 7.9-4.9 8.5-3.7 15 4.1 20.9 5.9 4.5 12.6 8 14.4 16.7 3.9-4.5 3.5-8.3 1.4-12.3-1.7-3.2-4.3-5.5-6.8-7.9-5-4.9-5.3-7.7-1.7-13.6 1.1-1.8 3-3.3 3.3-6.1-8.7 5.3-10 9.7-5.4 18 1.1 2 2.5 3.9 3.7 5.9 0.8 1.1 1.8 2.1 0.9 3.6zm250.7 59c-2.1 0.7-2.9-1.2-4-2.3-3.6-3.7-6.5-8-9.1-12.4-3.2-5.4-6.5-10.8-9.9-16.2-1.2-1.9-2.5-3.8-5-5.4v19.6c2.7 1.8 3.9 4.9 5.5 8.1 4.9 0.4 6.6 4.4 8.1 7.2 8 5 14.8 10.8 24.1 11.1-0.1-2.7-1.7-5.3-0.4-7.7-4.4-5.5-4.4-12.1-6.2-18.5-1.4-2-4.4-3.1-5.1-6.2-1.6-7.1-4.1-13.8-8.5-19.9-4.5-1.1-8.6-3.8-13-5.8-3.1-1.4-6.3-2.6-10.1 0 8.6 5 14.1 12.1 18.9 20 5.5 9.1 9.9 18.8 14.5 28.4h0.2zm-162.6-89.8c-2.4 2.2-4.8 4.5-9.1 3.9 3.2-4.6 7.5-7.6 9.3-12.6-2.6 1.5-4.8 4.1-8.5 3.3 0.8-6 6.9-9.1 7.6-15.2-2.1 1-2.3 3-3.4 4.4-1.3 1.5-2.4 3.2-5 3-1.3-4.5 2.1-8.1 2.4-12.8-2.4 2.1-2.6 5.2-5.3 6.6-1.3-3.8 1.1-7.4 0.4-11.5-1.7 2.1-1.3 4.5-3.8 5.6-1.1-5.4 0.1-10.6-1-16.9-1.5 4.2-0.8 8-4.4 10.8-1.9-9.4 0-18.9-5-27.3-3.3 5.5-5.1 11-6.5 16.7-0.5 2-1.2 3.8-2.4 5.4-1.9 2.5-4.3 3.9-7.6 3.4-0.6-3.3 2.5-4.4 3.2-6.7 0.8-2.5 2.2-4.9 1.2-7.8-1.6 0.2-2.1 2.3-4.4 2-5.1-3.8-8.3-9.6-11.3-15.5-3.5-6.8-4.4-7.5-12.1-6.2-3.7 0.6-6.9 0.2-10-1.6-2-1.2-4.1-2.1-6.3-3.1-2.3-1.1-4.7-1.6-7.3-0.9-4.4 1.2-8.9 2.6-13.5 2.6-0.3 3.4 1.3 5.8 3.2 7.9 4.3 4.8 9 8.8 15.7 9.9 4.4 0.7 8.3 2.4 10.4 6.7-0.1 3.2-1.6 5.9-4.7 5-6.2-1.6-13.4-0.2-18.4-5.6v-0.2l0.1 0.1c-0.6 3.2 1.2 4.5 3.9 5.4 8.8 2.9 17.7 4.2 26.5 0.9 1.7 1.8-1 3.3 0.1 4.6 2.3 0.9 4.3-0.9 6.4-0.2 0 2.2-2.5 2.9-2.3 5 3 0.2 5.7-2.3 8.9-1.6-0.6 2.9-3.8 3.1-4.5 5.7 4.2 2.4 7.4-2.2 11.5-1.8-0.8 3.7-4.7 4.1-6.7 6.9 5.5 0 9.7-3.1 15.2-3.2-3.1 4.6-8.3 5.5-11.9 9.4 9 0.7 12.5-6.2 17.5-10.8 2.4 2.5-0.7 5.1 0.7 8 4.2-5 2.6-11.9 6.9-17.1 2.7 5.1 2.2 10 1 14.5-2.1 7.9-8.6 11.2-16.5 12.5 1.8 2.1 4.5 2.5 4.4 5.9-3.4 4.6-8.1 1.5-11.8 1.6-2.9-1.4-3.6-4.7-7.2-4.9 0.4 2.1-0.6 3.7-0.9 5.2 0.5 2 2.1 3.3 2.1 5.2 0.3 2.1-2.3 2.2-2.8 3.7 2.7 2.7 6.1 3 9.3 3.4 1.3 2.7 2.9 5 5.9 5.5 1.7-1.2 2.5-3 4.7-4 3 1.4 4.9-2.2 7.8-2.6 1.8 0.4 3.1 1.2 3.8 3.3-0.8 2.6-1.1 5.5 0.4 8-0.8 2.3-1.8 4-4.6 4.3 3.5 2.9 7.7 1.6 10.8 4.4 2.2-3.5 6.6-0.6 9.1-3.6-0.2-0.9-0.5-1.9-0.7-2.8-0.1-1.5 2.3-1.6 1.9-3.3-1.7-0.9-4 0.5-5.6-1.3 2.5-3 6.2-4.2 8.6-6.9 0.1-0.2 0.2-0.3 0.2-0.3v0.4c-1.8-1.2-4.1 1.7-6-0.5 2.4-3.3 6-5 8.5-7.9 1-1.2 3-2 1.8-4.1l0.4 0.1-0.3-0.4zm-409.8 90.1c1.9-0.4 1.6-2.3 2.3-3.5 1.3-2.6 1.8-5.5 3.5-8.2 2.1 2.9 1 5.9 1.9 9.2 2.5-3.9 2.9-7.9 4-11.6 1.1-3.9 0.5-8 1-12.5 4.1 2.3 4.8 5.4 4.2 8.8-0.5 2.9-1.5 5.8-2.2 8.7-0.6 2.7-1.8 5.3-1.1 8.2 1.5-4.1 2.5-8.4 4-12.5 1.5-4.3 1.5-8.4 0.3-12.7-1.1-3.8-3.4-5.4-7.1-4.1-4.5 1.6-8.8 2.4-13.2-0.9 0.2 2.3 0.9 3.9-0.1 5.7-4.4-0.6-6.8-4.1-9.4-7.1-1.9 0.8-1.4 3.2-3.1 3.8-1.4-0.5-1.3-2.8-3.2-2.7-1.3 2.3 0 5-1.3 7.1-2.5 0.4-3-1.4-3.8-2.8-0.9-1.4-0.9-3.6-3-4-1.4 1.2 0 3.3-1.9 4-5.7-4.7-7.4-9.8-5.7-16.7 0.4-1.5 1.6-3.1-1.1-4-1.7 1.7-1.7 4.8-4.7 5.6-3.3-5.9 1.8-10.8 1.7-15.6-4.8-0.6-9.4 2.2-14.1-0.4-1.9 0.5-3.7 1.4-5.7 1-1.6-1.4-0.7-4-2.8-5.1-4.4 3.8-5.4 9.3-7.2 14.5-3.1-1.1-4-3.1-4.6-5.3 0.5-6.6 7.2-10.1 8-16.4-7.6 5.5-12.8 11.9-8.7 21.7-1.1 0.4-1.7 0.7-2.3 0.9 0.6 4.4 0.6 4.4-1.1 7.1-1.5-0.7-1.6-2.9-3.2-3.2-2.9 7.1-3.1 14 1.9 21.2 0-3.9-1.8-7.1 0.2-10.7 2 2.8 3.6 5.3 5 7.2 1.7 0.9 1.9-1.1 3-0.8 1.9 0.5 1.4 3.4 3.9 3.6 0-2.7-2.3-5.3-0.4-8 2 0 1 2.9 3.1 2.8 1-1.7-0.5-4.2 1.6-5.7 2.2 1.9 1 5 2.8 6.7 1.6-0.6 0.9-2.8 2.7-2.9 0.8 2.1-0.1 4.3 0.2 6.4 3 1.1 4.5 1.2 6.2 0.6 0.5-4.6-3.3-9.3 0.2-14.7 4 6.5 6.5 13.4 12.4 17.6-2.1 3-4.9 2.1-7.6 3-3.2 3.8-7.9 5.3-12.8 6.4-4.6 1-8.8 2.7-12.9 5.2-5.9 3.8-12 7.2-18.1 10.6-5.9 3.2-12.1 4.7-18.7 2.3-0.9-0.3-1.9-0.4-3-0.2-6.3 1.2-12.9 7.8-14.5 14.6 1.9 3.1 3.7 6.4 8.4 5.7 1.5-10.4 5.4-15.5 11-14.3-0.1 4-5.1 7.4-1.6 12 2-1.1 1.7-3.4 3.5-4.9 2.7-0.3 3.7-2.8 5.1-5.1 1.3-2.4 3-4.3 6.2-3 0.4 2.4-1.7 3.7-1.3 5.9 0.6 1.6 1.4 3.5 3.9 4.1 0.2-1-0.6-2.1 0.2-3.2 5.6-2.8 11.1-6.4 17-10.7 0.2 5.4-4.3 7.6-6 12.1 7.9-3.4 11.9-10.4 19.3-14.5-1.6 4.4-2.9 7.9-4.5 12.3 8-3.7 9.7-11.7 15.1-16.7 1.5 4.7-2.4 8.2-1.4 12.9 5.1-4.1 6.1-10.8 11.6-14.9 0 4.3-1.6 7.7-1.4 11.7 5.9-2.9 5.9-9.8 10.1-13.8 1.2 3.5-0.4 6.6-0.2 10.8 2.9-4.7 5.2-8.3 7.6-12.3 2.2 3.7-0.7 6.6 0.1 10 3.2-3.5 3.2-8.6 7-11.6 1.9 3-0.8 6 0.5 9.1 3.4-3.4 2.5-9.1 7-11.3 1.6 2.8-0.3 5.4 0.3 8.5 3-3.1 3.3-7.5 6.4-10.8 1.4 3.6 0.4 6.7 0.7 9.8v0.1l-0.1-0.1zm-204.9 0.3c0.2 0.3 0.4 0.7 1 0.1h-1.1c-4-3.6-9.2-3-13.4-4.1-4.4 2.6-5.1 6.2-4.4 10.2 0.3 1.8 0.9 3.6 1.5 5.3 2 5.5 3.7 11.1 0.2 17 38.3 18.6 77.8 28.1 120 24.4 0-12.9-0.2-14.7-3-18.1 3.9-0.7 7.6-1.5 11.4-1.9 4.9-0.5 8.1 1.6 8.8 5.4 1 5.2-1.1 8.9-5.9 10.6-2.2 0.8-4.7 0.9-6.4 3 5.6-0.5 11.2-1.4 16.7-2.4 20.6-4.1 40.7-10 61.1-14.8 16.2-3.8 32.6-6.8 49.3-7.1 18-0.3 35.5 2.5 52.1 9.7 2.9 1.2 5.6 2.9 8.9 3.5 0.3-0.7 0.7-1.3 0.7-1.9 0.2-3.5 1-6.9 0.4-11.8-3.4-3.1-7.6-6.9-11.6-10.9-1.9-1.9-4-3.3-6.6-4.2-14.3-4.5-29-5.9-43.9-5.5-20.1 0.6-39.6 4.7-59 9.7-4.6 1.2-9.3 1.9-13.3 3.9 0.5 5.2 1.9 9.7 4.4 13.6 2.8 1.3 4.8 0.2 6.7-1.5 0.8-4.7 0.4-9.1-2.9-13 1.3-0.7 2.5-0.8 4-0.1 0.2 3.9 1.6 7.7 1.4 11.8-0.1 2.2-0.8 3.8-2.8 4.9-5 2.6-10.7 0.7-12.8-4.6-1-2.6-1.7-5.4-3.2-7.8 0.6-0.8 1.2-1.6 2.2-2.9-2.8 0.8-5.1 1.3-7.3 1.9-23.9 7.2-48.3 10.8-73.3 10.4-28-0.4-54.8-6.1-80.3-17.9-3.7-1.7-7-3.9-10.1-6.4-3.6-2.9-3.9-5.3-1.9-9.5 4.2-1 8.2 0.9 12.4 1zm300.6-22.2c1.4-3.3 0-5.6-0.7-7.9-6.4-20.2-5.2-39.3 6.2-58 17.7-29.2 53.9-35.8 79.2-25.1 24.8 10.6 40.7 36.4 39.7 63.4-1 28-22.1 54.4-49.4 61.7-0.8 0.2-1.6 0.5-2.2 1.7 0.5 4.3 0.4 9.1 2 14 8.9 2.3 17.7 4.6 26 6.8 34.5-16 58.2-56.7 53.1-98.1-3.7-30-17.7-53.5-42.8-70.6-1.3 0.7-2.2 1.3-3.2 1.8-29.1-17.7-70.8-15.9-96-0.2-1.2 0.3-2.1-1.1-3.5-0.3-42.9 26.5-54.5 84.8-32.2 123.5 8.1-3.9 16-8.4 23.8-12.7zm437.3 22.8c-2.3-6.7-9-7.7-16.5-1.1 4-0.1 7.6-2.8 11.6-0.5 1 2.6 0.2 4.5-2.1 6.2-7.9 6.1-16.2 11.7-25.4 15.7-22.1 9.6-45.4 12.8-69.2 12.9-20.4 0-40.3-4.4-60-9.3-23.9-6-47.5-13-72-16.3-21.3-2.8-42.5-2.3-63.4 3.5-1.5 0.4-2.9 0.7-4 1.8-5 4.8-10.1 9.7-15.2 14.5 0.1 4.5-0.2 9 1.1 13.5 2.7-0.2 4.6-1.6 6.6-2.6 12.9-6.4 26.6-9.7 40.8-10.7 17.7-1.3 35.2 0.9 52.6 4.5 22 4.6 43.6 11 65.4 16.1 23.9 5.5 48 7 72.4 3.4 20.5-3.1 40.2-9.1 59.3-17.2 4.9-2.1 9.8-4.1 14.5-7-2.1-9.7 0.7-18.7 3.5-27.4zm-431.3 24.9c5 3.3 9.1 6.6 14 8.8 2.6 1.2 5.3 2.2 8.2 2 3.3-0.3 6.1 0.8 9 2.1 11.9 5.6 24.2 6.9 36.9 3.5 4-1 8.2-2.2 11.6-6.2-23-6.7-44.5-15.3-63.2-30.2-5.5 6.8-10.8 13.1-16.5 20zm321.6-65.8c0 6.2 4.1 8.8 8.2 11.5 2.1 1.4 3.7 3.6 3.5 6.3-0.3 4.5 1.2 8.5 2.6 12.6 1.1 3.5 2.1 7 0.9 10.9-3.3 1.7-4.7 4.7-4.6 8.6 0.2 5.9-1.9 10.7-6.9 14-0.4 0.3-0.5 0.9 0.2 2.1 12.8 0.9 25.9 0.4 39.8-2.7-8.2-7.7-8.8-16.8-9-26-6.6-4.8-10.2-11.5-12.9-18.8-3.8-10.5-12.4-14.9-21.8-18.5zm38.2-24.8c3.8 2.8 6.9 6.5 10.9 9 3.9 2.5 7.9 4.9 12.2 6.7s8.5 4.2 13.6 5.6c-1.6-8.1-10.7-9.1-12.9-16-4-0.9-6.7-3.5-8.9-6.4-4.5 0.1-5 0.2-6.9-2.3-3.1-4.1-8.1-6.3-10.7-11-0.5-1-1.7-2.1-3.3-1.7l-1.2 4.8c-2.4 10.7-3.9 21.3 5.7 29.7 0.2 0.2 0.4 0.5 0.6 0.7 2.6 0.7 5.2 1.4 7.4 3 3.4 2.5 6.7 4.9 11.3 4.2 0.9-0.1 1.5 0.7 2.1 1.1 4.8 2.9 7.8 2.7 12.7-1-1.4-0.7-2.7-1.3-4-2.1-6.9-4-13.9-7.8-20.7-12-4.4-2.6-7.5-6.5-7.9-12.3zm-41.6 49c-4.5-1.8-7-5.6-10.6-8.5-4.6 8.5-11.2 14.6-19.4 20.2 5.5 1.4 9.4 3.8 12.2 8-0.2 6.3 3 13.1-2.4 19.2 3.8 1.6 7 2 10.6 0.6-0.2-4.3 2-7.4 4.5-10.4 2.7-3.2 4.3-6.7 2.8-11.1 5.8-5.3 0.4-11.7 2.3-18zm-638.9 50.1c0.8 1.7 1.8 2 2.6 2.5 12.2 7.4 25.2 12.7 38.9 16.5 20.5 5.7 41.4 7.7 62.7 7.2 20.9-0.5 41.4-3.5 61.6-9.1 11.9-3.3 23.5-7.3 35.6-9.8 21.1-4.4 42.2-8.2 63.8-6.8 15.9 1 30.9 4.6 44 14.2 0.5 0.3 1.1 0.8 1.9-0.8-4.3-3.1-8.9-5.9-13.8-8.2-12.1-5.6-24.9-8.1-38.3-8.2-17.4-0.1-34.6 1.1-51.4 5.9-18.1 5.1-36.3 10-54.7 13.8-27.9 5.8-55.9 8.6-84.3 5.4-18.9-2.1-36.8-7.5-53.7-16.2-4.7-2.2-9.2-5.1-14.9-6.4zm-21.3-120.5c-1-1.5-0.9-3.6-2.4-4.7-6.2-4.1-11-10-16.7-15.1-1.4 4-1.6 7.9-2.1 11.6-0.2 1.6-0.3 3.3-0.1 5 0.4 4.2 0.4 8.7 4.6 11.5 1.8 1.2 2.1 3.3 2.3 5.7 3.5 1.4 4.4 4.9 5.8 8.1 1.8 4.2 3.6 5.2 8.3 4.4-3.4-5.6-7.3-10.8-10.1-16.6-3.8-7.7-5.3-13.7-4.2-18.9 6.6 13 14.4 24.9 24.2 35.5 1.1-10.7-3.6-18.9-9.6-26.5zm808.8-8.7c1.2 3.8-0.9 5.6-2.3 7.6-5.3 7-12 12.4-19.2 17.4-2.3 1.6-4.8 3-7.5 5.9 7-1.3 12.8-2.4 18.6-4.1 1.8-3.3 4.5-5.7 7.1-8.3 1.4-1.4 3-2.8 3.5-4.8 1.3-5 3.7-9.6 5.2-14.5 1-3.2 1.6-6.5 1.2-9.8-0.2-1.7-0.4-3.5-2-5-2.9 4.4-5.9 8.2-10.6 9.4-4.3 5.9-4.9 14.4-13.4 16-3.3 4.3-5.8 9.4-11.8 9.7-2.3 4.1-2.3 4.1-2.3 7.2 13.3-6.3 23.3-16.2 33.5-26.7zm-371.1 16.4c-3.5 3.9-4.9 7.9-4.5 12.7 0.2 3-0.4 5.9-2.4 7.7-2.5 0.8-3.5-1.6-5.5-1-1.4 1.4-1.3 3-0.2 5.2 9.7-0.1 19.4 0.3 29.3-0.2 0.8-11-2.7-20-8.1-28.6-1.8 1.6-1.4 3.7-3.1 4.7-1.8-0.2-3.6-0.3-5.5-0.5zm-28.5 135.3c-7.8 1.3-8.2-6.7-12.3-9.6-3.6-0.7-5.4 1.3-7 3.8-1.5 2.3-2.7 5.1-6.2 5.1-2.6-0.5-3.8-2.5-5.3-4.4-2.2-2.7-3.9-5.8-6.6-8.1-4.8-4.1-12.1-3.5-16 1.4-2.4 2.9-0.8 8.9 2.8 10 2.4 0.7 4.2 0.1 4.4-2.8-1.7-1.1-3.5 0.7-5-0.6-1.3-4.7 0.8-8 5.5-8.1 5.1-0.1 8.3 2.9 11 6.7 2.9 4.1 5.5 8.4 10.8 9.9 0.7 0.2 1 0.9 1.1 1.9-1.6 2.5-3.8 2.3-6.2 0.9-1.8-1-2.9-2.7-4.2-4.3-1.4-1.6-2.5-3.7-5.5-4.7 2.1 3 3.6 5.4 5.3 7.6 5.8 7.7 9.5 7.5 14.3-0.8 1.3-2.3 2.5-4.8 5.8-4.9 5.2 1.2 4.7 6.8 7.6 9.9 3.1 1.5 6.3 1.5 9.8-0.2 2.6-3.6 5.9-7.1 7.2-12.4-3.1 2.3-4.5 5.3-6.7 7.6-1.5 1.6-3.1 3.1-5.4 3.3-2.1 0.2-4.1-0.1-3.9-3.7 7-1.5 10.4-7.8 15.1-12.7 1.6-1.7 3.6-3 5.8-3.7s4.3-0.6 6 1.1c1.9 1.8 2.4 3.9 1.3 6.3-0.2 0.4-0.5 0.8-0.4 0.6-2.1 1-3-1-4.4-0.3 1.1 3.3 1.8 4 4 3.6 2.9-0.5 4.2-3.2 4.3-9.1-2.4-3.6-5.9-4.4-10-4.2-5 0.3-8.2 3.3-11.2 6.8-2 2.5-3 5.7-5.8 8.1zm-403.2-94.1c-5.8-2.7-11.3-1.5-17.8 2-10.8 5.9-9.8 15-7.2 25.4 1.7 1 1.6 4 3 6.2 9-4.2 14.9-12 22.3-18.3-0.1-3.6 3.8-5.5 4.8-9.1-9.6 5-17.3 12.1-24.3 20.1 0.7-12.9 10.3-19.3 19.2-26.3zm541.7 97.9c1.7-6 0.7-8.7-3.9-11.7-4.6-2.9-9.5-3.8-14.8-3s-10.2 2.8-15.2 4.7c-3.9 1.5-7.7 3.7-11.9 4.2-1.1-1.8-0.1-4.1-2-5.4-4.9 5.4-9.6 11-17 13.3-7.2 2.2-14.5 1.6-22.2 1.3 1.8 3.9 4.4 4.8 7.7 4.6 4.2-0.3 8.3-0.8 12.3-1.7 11-2.4 22.1-5.1 33.5-3.3 0.4 0.1 0.6-0.3 0.4-0.9-1.4-1.4-3.4-1.7-5.3-2.3-1.8-0.6-3.8-0.7-5.1-2.4 10-6.5 21.5-8.8 31-9.2 5.3-0.2 9.2 3.7 9.5 9-1 2.8-4.2 1.8-5.8 3.4 2.7 3.1 3.2 3 8.8-0.6zm154.7-80.5c-1.1-3.4-3.6-6.3-6.2-9.1-9.6-10.3-21.9-17.9-30.3-29.5-1-1.4-2.5-1.4-4.4-0.4-1.7 5.4-7.4 7.7-11 11.9 2.9 3.4 5 3.1 9.9-1.1 1.1-2.5-0.8-5.4 1.2-7.7 1.2-0.7 2.2-0.6 3.1 0.7-1.5 6.3 1.7 10.3 7 13.2 2.8 1.5 5.6 2.9 8.4 4.4 4.3 2.3 7.2 5.8 8.5 10.5 0.7 2.6 1.6 5.1 2.6 7.5 0.8 2.1 1.8 4.2 4.2 5.7 1.6-2.9 5.8-2.3 7-6.1zm-372.3 83.6c-16.1 3.2-29.4-1.6-40.2-13.6-1.4 2-0.4 4.2-2 5.5-0.2 0-0.4 0.1-0.5 0-1-0.5-2-1.1-3-1.7-9.3-5.3-19.1-8.7-29.9-7.9-7.6 0.6-11.4 5.1-11.5 12.9 1.1 2.2 3 3.4 5.2 4.3 2 0 3.6-0.5 4.1-2.7-1.7-1-3.9 0.1-5.2-1.7-0.7-5.4 0.1-6.9 4.9-8.7 3.5-1.3 7-1.9 10.8-1.4 7.9 0.9 15.1 3.8 22 7.7 0.8 0.5 1.9 0.8 1.8 2.1-1.8 2.5-5.9 0.9-7.8 4.5 9.5-0.7 18.2 1 27 2.9 5.5 1.2 11.1 2.3 16.7 2.6 3.4 0.4 6.2-0.7 7.6-4.8zm68.4-148.2v28.6c4.2 1.9 15.5 1.7 16.6-0.2 0.3-1.2-0.2-2.1-1.1-2.8-1.6-0.8-3 1.1-4.7-0.4-1.5-2.5-2.3-5.4-1.9-8.4 1.8-3.5 5-3.3 7.9-3.6 0.8-3.4 1.9-6.5 3.1-9.6s0.2-4.3-3.8-5.1c-1 3.3-2.2 6.6-5.9 7.8-3.9-1.3-4.7-4.4-4.8-7.7-2.5-1.3-4-0.1-5.4 1.4zm330.5-18.1c-1.5 1.7-0.7 2.5 0 3.2 2.6 2.8 4.9 5.9 8 8.2 3.1 2.4 3.6 4.8 1.9 8.3-0.8 1.6-1.9 3.1-2.7 4.8-2.3 4.8 0.5 10.5 5.6 11.7 2.3 0.5 4.7 0.3 6.9-0.2 5.3-1 10.3-7.2 10.7-13.1 0.3-4.3-3.7-8.6-9.3-10.4-1.7-0.5-3.7-0.2-5.2-1.4-1.6-6.4-1.4-13.2-3.9-19.4-1.7 5 1.7 9.8 0.8 15.5-2-2-2.5-4-3.5-5.6-0.9-1.6-1.5-3.5-4-4.8 1.3 4.4 4.7 7.5 3.8 12.3-3.9-2.6-5.5-6.8-9.1-9.1zm21.6-1c1.3 0.3 1.7-0.3 2.2-0.6 7.2-5.3 11-13.1 14.7-20.7 2.2-4.6 4-9.5 8-13.3-2.3-2.8 0.5-6.2-0.7-8.8-8.9 6.6-12.2 17.7-21 24.3-2 6-4.8 12.2-3.2 19.1zm-671.2-0.4c7.7-2.6 13.1-7.3 18.1-12.8 3.5-3.9 5.1-8.1 3.4-13.8-2.6 1.6-4.3 3.7-6.9 4.5-5.9 1.9-11.8 4-17.8 5.9-4.2 1.3-7.8 3.6-11.2 6.3-2.3 1.8-2.4 2.7-1.8 5.9 9.5-6.9 19.5-12.3 32.2-14.5-3.8 4.3-7.9 6.2-11.6 8.6-3.8 2.5-8.7 3.4-11.5 7.9 2.5 1.2 5 1.9 7.1 2zm319.1 4.6c2 1.5 3.7 2.4 5.8 1.2 1.5-3.2 0.9-8 6-8.4 2.9 2.1 2.8 5.4 3.6 8 1.7 0.9 3.6-0.1 4.7 1.1 2.8 2.6 2.4 7.8 7.9 7.8 1.6-3.6 2.1-7.4 2.8-11.4-9-6.3-18.3-11.7-30.1-11.2-0.7 4.4-1.3 8.5-0.7 12.9zm320.7-39.4c-7.5 1.3-14.5-1.4-21.6-0.5-0.5 1.1-0.5 2.2 0.2 3.4 5 2.8 7.9 8.1 12.8 11.5 5.1 3.5 9.9 3.6 16 3.7-2.7-6.5-5-12.3-7.4-18.1zm-486.4 82.5c4.2-0.7 4.9 2.6 6.6 5.2-0.2-4.4-0.6-5.1-4.5-7.4-3.6-2.1-7.3-4.2-8.8-8.4h-2.4c-2.1-1.6-2.5-4.3-4.8-6.6 0.1 3 2.1 5.1 1.3 7.7-3-0.5-3-3.9-5.2-5-1.4 1.8 0.7 4-0.9 5.5-1.7 0.7-1.9-1.9-3.4-1.3-0.8 1.4 0.6 3.4-1 4.5-1.4 0.3-1.4-2.1-3.1-1.1-0.1 2.4-0.4 4.9 1.9 6.7 3.8-0.9 3.8-0.9 6.4 0.3 1.5 4.3 0 8.4-1.7 12.9 6.4-3.3 4.4-9.4 5.8-14.6 4.8 3 3.5 7.8 4.4 12.4 2.8-4.4 0.7-8.7 1.9-12.8 6.1 1.6 5.5 6.7 6.9 10.9 0.2-2.9 0.4-5.8 0.6-8.9zm230.3 114.2c12.3 5.2 29.3-1.8 32.1-13.1-12.9-1.2-30.2 5.2-32.1 13.1zm-168.2-13.2c3.9 11.3 21.9 18.5 32.5 13.2-2.9-8.2-19-14.2-32.5-13.2zm460.8-74.4c-0.2 6.9-2.3 13-4.6 19.1-2.4 6.4-5.2 12.6-7.2 19.1-0.6 2-1.7 4-1.1 6.2 2.5-0.1 3.2-1.8 3.7-3.6 2.2-7.7 5.4-15 8.4-22.4 2.9-7.3 5.7-14.6 7.3-22.2 2.2-10.5 1.6-20.5-4.6-29.7-0.2-0.4-0.8-0.5-1-0.7-1.1 0.1-1.7 0.5-2.2 1.9 2.5 5.4 4.3 11.4 5.5 17.6 1.1 5.4 1.2 10.7-4.2 14.7zm-368.8-45.5c-7.9-7.5-8.1-11.7-1.4-20.1 1.2-1.6 2.6-3 3.1-5-2.7-6.1-4.2-6.9-8.3-4.9-0.9 2.8 2.2 3.8 2.6 6-0.8 2.6-3.5 3.1-5.4 5.2 2.4 6.7-5.7 6.8-8.1 10.9 1.9 1.5 3.6-0.1 5.5 1 1.1 3.2 6.1 4.7 5.2 9.3-1.8 1.3-3.9 0.2-5.2 2.2-0.5 2.3-0.9 5-0.4 7.7 4.9 0.9 2.1-5.7 5.5-5.5 2.4-0.7 3.8 2 6.1 1-0.5-1.6-0.9-3.1-1.4-4.7 0.7-1 1.5-2 2.2-3.1zm-343.8 3.7c-2.5-2.4-5.1-3.4-8-3.5-6.5-0.3-9.8 4.4-7.5 10.3 1.3 3.2 2.6 6.4 3.9 9.7 2.4 1.3 4.8 2 7.8 1 5.6-5 1-12 3.8-17.5zm140-4c13.4 5.3 18.3 4.1 23.3-5.4-2.2-3.7-4.1-4.4-8-2.5-3.1 1.5-5.9 1.9-8.9 0.2-0.3-1.8 2.4-1.3 2-3.4-3-0.6-6-0.8-9.2-0.1-2.3 4-0.5 7.6 0.8 11.2zm171.6 43.4c8.1-2.4 16.2-4.4 24-9.4-5.5-0.5-9.6-2.8-13.7-3.4-4.4 2.3-4.5 6.9-6.9 9.8-1.8 0.7-3.2 0.7-4.4-0.5-2.4-2.6-1.4-7.2-5.5-9.3-0.7 2.1-2.6 3.3-1.8 5.9 0.7 1.4 3.1 1.6 3.4 2.9 1.4 4.5-1 8.1-0.5 11.7 4.6 3.5 5.9 3.9 10.1 2.7-1.9-3.2-4.1-6.1-4.7-10.4zm-305.2-89.7c-7.3-9.9-16.6-14.8-27.7-17.6 0.4 4.1 3 7.3 3.1 10.9 1.1 1.2 2.3 2 2.9 3.2 1.1 1.9 1.8 3.9 2.7 5.9 2.3 5 6.1 6.9 10.8 4.9-5.3-6.3-10.6-12.4-15.7-18.4 0.5-1.5 1.1-2.1 2.5-2.4 8.5 5.4 14.6 13.5 21.4 21.8 0.6-3.5 0-6.3 0-8.3zm338.3-61.9c-1.1 4.3-2.1 8.1 2.1 10.8 3.9 2.4 7.6 2 12.4-1.4 3.2-6.4 0-11-6.9-17-3.1 2-4.6 5.6-7.6 7.6zm-274.4 162.9c-5.1 1.2-9.2-0.3-13.4-0.9-4.3-0.6-8.3-2.6-13.3-2.8 12.1 9.2 23.4 10.2 34.4 3.3-0.4-2-1.5-3.6-3.1-5.1-3.3-0.4-6-2.2-8-5.3-6.6 1.2-12.6-4.3-20.5-1.5 8.6 3.9 18.2 3.6 23.9 12.3zm223.9-27.5c0.2 20.3 15.6 42.7 28.9 46.8 0.2-0.6-0.2-0.9-0.6-1.2-4.9-3.1-8.9-6.9-11.4-12.2-0.7-1.5-1.9-2.7-3.1-3.9-4.3-4.4-8-8.9-3.7-15.4-5.5-3.9-4.4-10-5.7-15-1.8-0.4-3.1-0.1-4.4 0.9zm-283.8 65c-0.4-5-0.9-9.8-1-14.6-0.1-10.7-2.5-20.6-9.3-29.2-0.9-1.2-1.5-2.6-2.3-3.8-1.9-3-3.4-6-2.7-9.8 0.3-1.7 0-3.7-2.7-4-0.5 3.3-0.2 6.4 0.9 9.4 2.1 5.8 5.2 11.1 8.4 16.4 2.4 4.1 3.7 8.3 3.7 13.2-0.1 7.3-0.1 14.6 1 21.6 1 1 2.1 1.2 4 0.8zm64.8-5.4c1.5-4.9-1.3-8.6-6-8.2-8.2 0.7-16.1 2.4-22.2 8.6-4 4-4.4 6.5-1.8 12 1.7 0.9 3.4 1.3 4.9-0.2 1.2-5.9 1.6-11.9 8.1-15.2 6.4-3.1 11.5-0.5 17 3zm224.5-184.7c2.3 0.9 2.9 3.6 5.4 4.7 1.6-2 4-2.6 6.4-3.1s4.3-1.7 3.8-5.2c-7.6-2.6-15.2-5.9-24-3.1 1.1 3.6 1.9 6.9 5 8.7 1.8 0.1 1.9-2.1 3.4-2zm-237 105.5c-3.5 0.6-7.5-0.3-10 2.4-2.1 2.3-4.6 3.7-6.9 5.6-3.4 2.8-6.6 5.9-7.9 11.6 6.2-5.2 10.3-11.5 18-14.4-2.6 7.1-8.1 11-11.4 16.4 1.7-0.5 3.4-0.9 4.6-1.9 4.3-3.9 8.5-7.9 12.4-12.1 1.8-1.7 2.7-4.2 1.2-7.6zm345.4-103c3.7-4.1 4.1-5.2 4-9.5-9.1-2-19.6 0.7-22.4 5.8 1.1 2.6 3.8 1.4 5.9 2.5 1 1.2 1.1 3.7 3.7 4 3.1-0.8 3.6-5 7-5.8 0.6 1.1 1.1 1.9 1.8 3zm26.7 59.7c6-15.3 10.7-30.7 26.5-39.7-2.8-0.4-4.3 0.1-5.8 0.8-3.7 1.7-6.8 4.1-9.3 7.3-5.6 6.9-9 15-12.8 23-1.2 2.4-1.7 5.3 1.4 8.6zm-431 22c3.4-1.6 6.7-3.2 8.2-6.8-2.6-5.2-6.7-7.5-11.2-6.2-3.8 1.1-4.9 2.9-4.5 7.7 1.9 2.4 4.6 4 7.5 5.3zm354.6 103c-5.3-0.9-10.6-0.8-15.7-0.9-0.9 1.5-1.5 2.6-0.8 4.6 5.3 2.3 11 4.7 17.2 7.4 0.6-4.2 0-7.6-0.7-11.1zm97.5-139.9c-10.3 2.5-14.2 10.7-17.4 19.3-1 2.5 0.3 5.1 3.3 6.8 3-10.1 7.3-18.8 14.1-26.1zm-452.6 67.3c-1.5 2.7-3.1 5.6-4.8 8.6 1.6 1 2.9 1.9 4.4 2.7 6.1 3.5 8.8 2.3 10.4-4.7-2-4.1-2.8-4.6-10-6.6zm670.6 65c-3.8 2.9-8.8 1.4-12.6 4.1 1.5 4.9 4.8 7 9.1 7.8 2.5 0.5 5.4 0.9 6.9-2.5-0.2-3.3-2-6.1-3.4-9.4zm-13.7-20c-1.6 1.9-2.9 3.2-3.1 5.4 2.8 3.9 3 9.8 8.5 11.8 2.9-0.3 4.9-1.5 6.5-3.9-4-4.5-7.4-9.2-11.9-13.3zm-108.4-156.6c-11.1-8-22.1-16.2-34.1-22.9 10.4 8.9 20.8 17.9 31.1 26.8 1.4-0.7 2.3-1.6 3-3.9zm-566.7 89.3c4 0.4 8.1 0.6 11.6 2.4 5-2.2 5.4-4.9 1.7-8.1-2.4-2-5.3-2.7-8.4-3.1-3.2 1.9-5.5 4.3-4.9 8.8zm231.3 5.4c4.9 5.6 12.5 5.9 18.2 10.4-0.2-4.9-1.1-6.4-5.5-8.5-4.3-2.1-8.5-4.1-11.4-8.2-2.1 1.9-1.6 3.9-1.3 6.3zm369.9 39.3c-0.4 3.6-0.7 6.9-1.3 10.1-0.6 3.3-1.9 6.4-3.3 9.4-1.3 2.8-2.6 5.6-4 8.4 7.2-4.2 12.1-17.2 12.6-23.2 0.2-2.3-0.7-4.2-4-4.7zm-244.3-12.4c-10.6-0.7-20-1.2-30-0.9 1 2.7 0.7 5.3 3.1 7.4 2.2-5.6 6.3-5.6 10.9-4.5 2.6 0.6 5.2 1.2 7.8 1.6 2.9 0.4 5.4-0.4 8.2-3.6zm-41.3 46.5c6.5 2 7.3 4.1 3.7 9.3-0.8 1.1-1.6 2.1-2.5 3.1-2.2 2.9-5.6 4.3-8.7 6.2 1.2 1.4 2.5 1.3 3.4 0.9 5.3-2.2 10-5.2 12.3-10.8 0.8-1.9 0.8-3.9 0.4-5.9-1-4-4.4-5.3-8.6-2.8zm83.6-32.8c2.3 0.8 4.7-0.2 6.5 1.1 3.1 3.4-0.8 7.5 1.2 11.3 3.2-1.2 7.1-1 8.2-5.2-4.2-5.6-13.6-11.9-15.6-10.6-0.7 1-0.9 2-0.3 3.4zm-122.6-63.1c3.3-1 3.3-3.8 4.4-5.9-3.2-7.1-9.1-11-15.8-14.2 5 6.1 10.1 11.9 11.4 20.1zm136.8 60.9c1.6 1.6 1.3 3.6 2.9 5 2-0.3 3.9 1.2 6.1 1.9 1.1-4.8-4.6-4.1-5.1-7.4 0.9-1.1 1.8-2.2 2.7-3.4 0.9-1.1 2.2-2.1 2.3-3.6-0.4-1.1-1-1.8-2.5-2-1.1 2.9-4.1 3.1-6.7 3.7-2 0.5-3.5 1.2-2.7 4 1 0.6 2.3 1.3 3 1.8zm-297.8-24.3c-1.3 4.7 0.2 8.8-2.2 12.1-2.3 3-6.5 3.7-9 7.6 4.8 0.2 9.3 1.1 12.2-3.1 3.7-5.3 0.9-10.3-1-16.6zm170.5-51c-3.9-6.9-8.8-12.8-14.8-17.6 4.3 7 6.3 15.4 12.1 21.7 1.6-1.3 2.1-2.6 2.7-4.1zm-37.5 68c-2.4 14-3.9 28.1-7.8 41.8 4.9-6.2 10.2-34.5 7.8-41.8zm9.2 45.6c6.9-7.2 13-26.9 9.9-31.5-0.7 2.7-1.2 5.5-2 8.1-1.8 6.4-4.7 12.3-7.3 18.4-0.7 1.6-2.1 3.2-0.6 5zm112.4-10.4c-0.2 2.7-0.5 5.3 0.4 8.6 3.1-4.5 8.9-3.4 12.1-7.3-1.7-2.1-3-3.8-4.3-5.5-2.8 1.4-5.3 2.7-8.2 4.2zm18.6-4.2c-1.2-0.5-2.1-0.6-3.3 0.4 2.9 3.7-1.7 7.6 0.1 11.8 4.8-1.5 10.4 0.6 14.4-4-2.9-4-6.5 1.5-9.7-1-0.3-2.2 0.1-4.8-1.5-7.2zm-164.7-55.3c-1.8-0.1-3.1-0.6-3.7-2.2-0.4-2.7 1.2-4.5 2.3-6.5s2.4-3.9 0.8-7.3c-1.5 5.8-7.1 9.4-4.8 15.8 4.8 2.9 9.8 4.1 16.1 2.8-3.1-3-5.6-4.9-8.3-6.4-1.7 1-1 2.8-2.4 3.8zm247.1-32.9c-4.1 2.9-9.3 4.4-11 9.8 0.8 2.5 1.1 5 3.4 7.1 2.3-5.9 6.5-10.6 7.6-16.9zm-350.3-42.9c10.4-1.8 13.4-12.2 22.2-17-3.9-0.8-5.2 1.5-6.7 3-5 5-10.2 9.4-17.9 8.3 0.1 2.4 0.8 4 2.4 5.7zm111.9 96.5c3.3-6.8 0.3-10.1-10.3-11.1 1.8 4.4 1.3 9 2.1 14 3.3-2.6 1.8-6.6 3.4-9.2 3.7 0.9 2.8 4.6 4.8 6.3zm5.6 1.7c3.3-3.5 2-7.8 5.1-10 2.4 1.8 2.6 5.4 6.8 6.1-2.4-4.1-2.7-8.6-6.3-11.2-2.3-0.6-4.2-0.3-5.7 1.6-0.1 4.1 1.6 8.2 0.1 13.5zm-124.1 83.1c1 4.2 1 8.3 2.9 11.7 2.3 0.3 3.6-0.6 4.8-1.8 1.6-7.5-1-11-7.7-9.9zm286-50.1c4.2-1.6 7.4 2.9 11.8 0.9-1.9-3.6-4.7-5.1-8.6-5.6-2.7 3.1-6 5.2-10.3 4.1-0.5 2-0.5 3.4 0.6 4.5 3.5 0.5 5.2-1.8 6.5-3.9zm-76.2-141.7c-2.1-3.1-4.2-6.1-7.6-8.8-0.3 5-0.7 9.3 0.3 13.8 3.3-0.7 5.8-1.9 7.3-5zm49.2-56.4c-4.3-0.6-8.2-0.5-12.2-0.1 0.1 4.2 2.5 6 5.9 6.9 3.7-0.5 5.5-2.7 6.3-6.8zm203.9 41.3c-8.7 3.3-10.2 12-3.4 18.1-0.8-6.4 1.3-11.9 3.4-18.1zm-197.1-33.4c-2.8 2.3-5.8 3.1-6.8 6.3 1.2 3.3 3.4 5.2 6.9 6 1.5-3.9 1.3-7.7-0.1-12.3zm-200.5 29.7c5.4 1 6.4 0.5 8-4-2.8-4.6-4.6-5.1-9.3-2.4 0.2 2.1-0.3 4.2 1.3 6.4zm-101.6 185.1c-6.3 3.2-8.7 7.2-8 13 2.1-0.7 2.2-2.7 3-4.3 0.8-1.8 1-3.9 2.9-5.1 1.7-0.5 3.3-0.4 4.8 1.2 1.1 0.9-0.4 2.7 0.9 3.9 1.6-1.4 3.3-2.4 3.9-4.6-1.8-2.8-4.8-3-7.5-4.1zm275.8-215.1c0.8 4.7-0.6 8.7 1.7 12.5 2.8-1.9 5.3-3.6 5.7-7-0.8-3.8-3.8-4.3-7.4-5.5zm64.5 53.7c0.2-4.3 0.4-8.1-0.2-12.5-3.9 2.4-6.5 5-7.2 9.2 2.1 1.7 4.2 2.4 7.4 3.3zm-62.5 126.8c-1.7 8.2-2 16.5-0.1 24.7 2.9-8.1 1.2-16.4 0.1-24.7zm-337.9-54.4c3.8-2.4 7.3-2.8 9.9-5.3 0.5-1.9 1.1-3.8-0.4-5.5-5.1 1.5-6.9 3.5-9.5 10.8zm24.8-10.6c1-6.9-1.8-9.4-9.2-9-1.1 1-2 2.1-1 4.1 3.5 0.4 6.7 2.2 10.2 4.9zm-16 21.4c1.6-4.6 1.4-5.4-2.5-8.4-0.6 3.9-6.4 5.4-4.9 10.7 2.8-0.9 5.2-1.6 7.4-2.3zm267.6-120.7c4 0.3 5.9-0.9 6-3.9 0.1-2.9-2-4.3-6.4-4.1-2.7 3.7-2.7 4.2 0.4 8zm177.9 154.6c-0.6-10.4 0.2-20 0.3-29.6-3.2 8.1-3.4 23.7-0.3 29.6zm63.8-41.9c-1.2 1.3-1.2 2.8-0.5 3.4 4.1 4 8.6 7.3 13.7 10-1.2-7.9-10-7.7-13.2-13.4zm-97-120.9c-2.6 0-4.9 1.9-5 4.2-0.1 2.4 2 4.5 4.4 4.4 2.3-0.1 4.3-2.4 4.2-4.8-0.1-2.3-1.5-3.6-3.6-3.8zm168.1 180c3.7-3.3 6.7-6.9 7.9-11.4-0.5-2-1.3-3.4-3.8-3.5-1.7 4.8-2.4 10-4.1 14.9zm84.8-79.7c3.5 4 10.5 9.2 13.8 10.2-5.3-8.5-9-11.3-13.8-10.2zm-419.6 7.2c-1.9-1.8-3.9-3.4-7.1-3.8 1.3 4.3 2.5 8 4.6 11.7 1.8-2.3 3.1-4.5 2.5-7.9zm340.8-83.7c-2.4-2.8-5-4.1-8.6-3.5-1.5 1.6-3.4 3-2.7 6.3 3.7-1 7.3-1.9 11.3-2.8zm-341.1 155.9c-3 5.6-5.9 11.2-7.2 17.5 4-5.2 8.1-10.3 7.2-17.5zm-85.1-73c4.4 0 7.9 4.1 12.9 3.4-4.2-3.1-9.6-3.9-13.6-7.3-1.9 1.8-3.3 3.4-3.9 5.5-0.2 0.7 0.5 1.1 1.3 1.3 1.2-0.6 1.1-2.5 3.3-2.9zm160.1 14.1c-2.1-2.9-2.1-2.9-5-3.3-2.4 5.5-2.4 7.2 0.1 10.5 1.1-2.9 2.6-5.4 4.9-7.2zm-313.6 24.2c3.9-2.5 6.6-5.5 8-10.9-4 2.9-8.1 4-10.2 7.6 0.2 1.5 0.6 2.5 2.2 3.3zm256.5-125.9c3.5 0.2 5.1-1.4 5.3-4.7-3.2-2.3-3.2-2.3-6.7-0.8-0.8 1.9-0.8 3.7 1.4 5.5zm14.3-16c1.9 2.4 4.1 2.9 6.7 0.7 0.3-4.7 0.3-4.8-4.1-5.5-1.5 1-2.8 2.2-2.6 4.8zm70.1 42.9c2.5 0.8 4.9 1.7 7.7 0.6 0.5-1.9 1.5-3.7 0.2-5.9-2.2-0.5-4.3-1.2-6.7-1.1 0.4 2 2.7 2.1 3.4 3.8-1.2 1.3-3.8 0.2-4.6 2.6zm139.4 90.4c2.3 1.9 5 3.4 8.5 2.8-3.5-2.7-5.8-6.4-9.3-10.6 0.4 3.4-0.2 5.5 0.8 7.8zm-166.3-44.3c0.2-1.9 2.2-2.9 2.1-5.4-3 1-5.7 1.2-7.8 4.4 4.4-0.1 3 6.4 7.7 6.3 0.5-2.6-1.7-3.3-2-5.3zm130.3 152c3.7-1.1 7.2-2.6 10.4-5-3.1-0.4-6.1-0.2-9 0-0.8 0.1-1.6 0.3-2.3 0.5-0.5 1.7-0.3 3.1 0.9 4.5zm-36.3-219.3c-1.6-1.9-3.4-2.7-5.7-1.6-1 1.3-1.4 2.6-0.6 4.3 1.1 1.3 2.4 2.5 4.4 2.3 1.8-1.1 2.5-2.6 1.9-5zm-43.9 24.7c1.3 2.6 3.8 2.8 6.7 3.5-0.7-2.3-1.7-4.4 1.4-5.8-2.5-0.9-3.8-2.5-5.9-2-1.2 1.2-1.9 2.6-2.2 4.3zm45.7-37.4c-2.5 0.5-3.6 1.9-4 4 0.3 1.6 1 2.8 2.8 3.3 2.3-0.1 3.9-1.3 4.7-3.7-0.9-1.3-1.6-2.8-3.5-3.6zm-232.5 94.4c-0.6-5-6.9-11.4-12.3-13.1-0.2 0.3-0.3 0.6-0.5 0.9-0.1 0.1-0.1 0.4-0.1 0.5 4.1 4.1 9.8 6.4 12.9 11.7zm217.2-101.4c2.5-1.2 3.1-3.1 2.1-5.6-2.7-1.9-4.9-1.7-6.6 1.1 0.4 2.7 1.8 4.2 4.5 4.5zm-128.5 21.4c-1.1-2.7-2.6-4.2-5.4-3.5-2 3.8-1.9 4.4 1.6 7.3 2.2-0.1 2.9-1.8 3.8-3.8zm-64.6 136.4c0 6.9-0.8 13.8-1.1 20.7 2.3-6.8 3.6-13.6 1.1-20.7zm129.6-167.1c-0.5 1.9-0.9 3.5 0.2 5.2 2.4 1.6 4.5 1.7 5.7-1.5-1.6-4.7-1.6-4.7-5.9-3.7zm-134.8 98.6c0.4 4 0 8 1.5 12.2 3.4-4.9 3-8.4-1.5-12.2zm-217.6 153.6c-4.9 0.2-5.7 4.1-7.8 6.7 0.6 1.4 1.1 2.6 3.1 2.3 2-2.4 3.3-5.4 4.7-9zm-8.5-46.5c3.6 3.1 7 5.7 11.2 7.7-1-5.7-3.9-7.7-11.2-7.7zm116.2-38c2.9-3.7 5.1-7.6 4.8-12.4-2.9 3.7-6.1 7.2-4.8 12.4zm209.7-110.5c2.7-0.4 4.9-1.1 6.4-3.1-0.9-1.8-1.7-3.5-3.4-4.5-1.5 0.7-3.5 0.5-4.5 2.3 0.8 1.1 2.6 0.2 3.1 1.9-0.4 0.9-0.9 1.9-1.6 3.4zm68.6-18.1c2.5-3.6 4.4-7.4 3.2-13-3.2 4.5-4.2 8.5-3.2 13zm-217.9 46c-0.6-1.2-0.1-2.1 0.3-3 0.3-0.8 1.5-1.4 0.9-2.6-4.2 1.6-4.8 3.3-2.8 8.2 1.6 1 3.2 2.2 5.4 1.3-0.2-2.2-2.9-2-3.8-3.9zm176.9-41.2c-5 1.9-5.1 2.1-4.3 7.2 2.1-0.2 4.3 0 6.8-1.2-2.1-1.6-3.7-3-2.5-6zm28.8-5.4c-1.2-2.5-1.1-5.9-5.1-6.3-0.9 2.2-1 4.2-0.8 6.3 2 0.8 3.8 0.8 5.9 0zm-128.8 205.4c-2.9-0.1-5.8-0.9-9.7-0.3 3.3 2.7 6.4 4 10 4.6 0.4-1.7 0.7-2.9-0.3-4.3zm137-93.4c-1.6-0.3-3-0.7-4.5 0.7 1.8 2.4 0.8 6.7 5.4 7.2 0.7-2.8 1-5.3-0.9-7.9zm-40.7-118.5c-3.1 1.8-3.6 4.4-4 7.2 2.1 0.5 3.9 0.5 5.6-0.7 0.2-2.1-0.4-4-1.6-6.5zm-115.1 154c3-5.9 4.2-12.4 3.6-19.1-1.3 6.4-2.4 12.7-3.6 19.1zm461.1 33.9c6 0.7 9-0.9 9.8-5.4-3.5 1.6-7.5 1.7-9.8 5.4zm-484.1-74.4c-0.2 2.6-0.5 5.1-0.7 7.7 1.3 0.9 2.3 1.8 4.1 1.6-0.1-3.4-0.9-6.4-3.4-9.3zm-59.3-70.6c-3 0.1-4.7 2-4.6 5.1 0.1 3 1.5 3.8 5.7 3.3-1.5-1.6-4-2.3-3.6-5.1 0.1-1.6 2.5-1.6 2.5-3.3zm567.1 177.3c1.8 3.8 3.1 6.8 5.9 9 1.8-4.7 0.7-6.4-5.9-9zm10-47.7c-6.1 0.5-8.1 2.3-7.9 6.9 3.2-1.4 5.5-3.6 7.9-6.9zm-336.2-84c-0.6 5.1-0.1 6.8 2.4 8.6 1.3-5.4 1.1-6.4-2.4-8.6zm-64.8 12.1c3.2 1.8 0.1 6.6 4.7 7.9 1-3 0.1-5.6-0.4-8.1-1.3-0.6-2.3-1.2-4.3 0.2zm4.8-92.5c-0.3-7.6-0.8-9.1-3.3-12.2-0.8 4.4-0.3 8.2 3.3 12.2zm50.3 8c2.4 2.6 5.2 3.2 8.6 2.3-2.6-4.3-4.8-4.8-8.6-2.3zm-90.7 155.9c-0.5-2.4-3.2-1.9-4.3-4.7-0.9-1.6 3-3.1 2.1-5.8-3.7 2.9-4.5 5-3.2 7.9 1.1 2.3 2.7 3.4 5.4 2.6zm51.6-156c-4.3-2.3-6.1-1.8-9 2.3 3.6 1.4 6.1-0.7 9-2.3zm65.5 102.2c-2 0.2-4-0.6-6.3 0.7 1.4 2.8 2.9 4.6 6.1 3.5 1-1.1 1.4-2.2 0.2-4.2zm-110.9-113.1c-1.5 1.6-3.2 2.8-1.4 5.2 1.7 0 3.6 0.7 5-1.2 0.1-2.1-1.1-3.2-3.6-4zm-85.2 65.8c0.2-5.8-1.2-8-6-10 2.3 3.7 4.2 6.9 6 10zm313.1-43.4c2.4 4 3.6 4.4 9.5 3.2-3.1-2-6.1-2.7-9.5-3.2zm-214.3-50.5c3.5 0.9 5.4-0.1 5.1-2.6-0.6-1.5-1.7-2.3-3.5-1.9-1.6 1-2.5 2.4-1.6 4.5zm-2.7 183.2c2.3-1.3 2.1-2.8 0.9-4.2-2-2.5-4.5-3.4-7.8-2.1 3.3 1.1 6 2.8 6.9 6.3zm-97.3-77.3c-2.3 3.8-5.7 7.1-5.4 11.8 2-3.9 4.9-7.3 5.4-11.8zm315.5 38.6c-1.2 4.2-3.3 8.1-1.9 12.6 1.2-4.1 3-8.1 1.9-12.6zm-260.5 48.5c2.7-2.3 5.3-4.8 5-9.6-2.8 3.2-4.9 5.8-5 9.6zm143.3-197.4c-1.3 2.4-0.9 4.1 1.8 5.2 1.8-0.4 2.7-1.4 2.8-3.1-1.1-1.3-2.3-2.4-4.6-2.1zm-47.3 263.4c1.8-0.3 2.6-1.2 2.7-2.8-0.9-2-2.2-3.1-4.6-1.9-0.9 2.2-0.1 3.6 1.9 4.7zm14.7-107.7c-3 0.8-5.1 1.7-6.2 4.5 1.8 0.6 3.2 1 4.9 0.4 0.4-1.4 0.8-2.9 1.3-4.9zm-174.9-127.7c1.4-1.8 2.5-3.1 1.6-5.2-1.4-1.3-3-1.3-5.3-0.5 1.8 1.5 2.4 3.5 3.7 5.7zm192.2 123.9c1.7 0 3.7 0.7 6-0.6-1.7-2.9-4.1-2.5-6.3-2.9-0.7 1.3-0.7 2.3 0.3 3.5zm34-116.6c-1.2-2.4-2.9-2.7-4.4-0.9-1.4 1.9-0.7 3.4 1.6 3.9 1.6-0.5 2.4-1.3 2.8-3zm-393.1 181.1c-2.7-2.4-5.7-4.1-9.4-4 2.5 2.6 5.7 3.9 9.4 4zm375.2-104.5c-2.7-3.4-3.8-3.3-6.6 0.5 2.2 0.7 4.2 0.9 6.6-0.5zm-103.3-67.7c-1.6-2.4-3.1-2.6-5-1 1.1 4.2 1.5 4.3 5 1zm115.8 0.2c-1-1.6-2.1-2.6-4.1-1.3-0.5 2 0.1 3.1 1.7 3.6 1.5 0 2.3-0.7 2.4-2.3zm-267.7-32.3c-4.6-1.3-5.6-0.3-5.4 4.1 1.1 0 1.6-1.1 2.3-1.7 1-0.6 1.8-1.4 3.1-2.4zm199.8 123.9c0.5-1.7 0.6-3.1-0.8-4.2-3.7 4.1-3.7 4.1-3.1 5 1.3 0.5 2.6 0.4 3.9-0.8zm43.8-26.1c2.1-5 2.1-5-0.2-7.7-0.1 2.6-2 4.7 0.2 7.7zm-66.4-103.3c-2.3 0.3-3 1.6-2.9 3.5 1.3 1.3 2.6 1.2 3.9 0.2 0.9-1.5 0.5-2.6-1-3.7zm-204.9 175.3c1.5 3 3.8 4.7 7.7 4.8-2.3-2.6-4.8-4-7.7-4.8zm39.2-87.2c-2.5-2-4.6-2.4-8-1.1 2.8 1.9 4.8 2.9 8 1.1zm145.7 45.1c2.9 1.3 4.7 0.8 6.5-1.6-2.5-0.6-4.4-0.9-6.5 1.6zm81.7-28.3c-0.7-1.9-1.8-3-3.7-2.6-1.5 0.3-2.3 1.3-1.4 3.1 1.6 0.6 3.3 0.4 5.1-0.5zm-68.9-79.1c-0.4-2.2-1.2-3.6-3.4-3.9-1.3 1-2.3 2.2-1.9 4.9 1.6-2.2 3.2-2.2 5.3-1zm1.3 105c-0.9-2.8-2.8-3.8-5.9-4.4 1.6 2.7 2.3 5.2 5.9 4.4zm52.3-9.7c-1.4 1-1.8 2.2-0.7 3.8 1.6 0.4 3 0.1 4-1.1-0.6-1.6-1.6-2.5-3.3-2.7zm-47.6-8.9c1.7-6.2 1.7-6.2-1.4-7.4 0.3 2.4-0.3 4.6 1.4 7.4zm70.5-110.6c1.1-3.5 1.1-3.5-1.3-5.1-1.8 2.9-1.8 2.9 1.3 5.1zm-311.2 192.4c1.6-0.9 1.7-2 0.7-3-1.2-1.2-2.5-1.2-4.1-0.1 0.8 1.5 1.4 2.8 3.4 3.1zm321.9-25.6c-1.9 0-3.3 0.5-4.7 1.4 0.9 1.7 2.1 2.2 3.6 1.9 0.9-0.8 1.5-1.7 1.1-3.3zm-115.2 21c4.4-0.6 4.5-0.7 5.7-4.6-2.4 1.1-4.2 2.6-5.7 4.6zm90.1-68.9c1.1-2 1.8-4 0.4-6.8-1.8 2.4-1.6 4.6-0.4 6.8zm-36.5 121.9c1.1-1.1 2.6-1.7 2.1-3.6-1.4-0.8-2.7-0.8-4.1-0.1-0.2 1.5 0.5 2.5 2 3.7zm-28.6-245.7c-1.4 2-1.3 3.4 0.9 4.3 1.4-0.2 2.2-0.8 2.4-2.2-0.4-1.5-1.4-2-3.3-2.1zm70.9 161.2c2.5 0.7 2.1 3 3.6 4.3 1.5-1.4 1.6-2.9 0.8-4.6-1.1-0.4-2.2-0.9-4.4 0.3zm-26.4-62.6c-0.9 1.4-1.1 2.4 0.1 3.5 1.4 0 2.8-0.1 3.5-1.7-0.8-1.4-2-1.7-3.6-1.8zm29.8 30c0.6-1.8 0.4-3-1.1-3.8-1.4 0.5-2.3 1.2-2.4 2.6 0.9 1 1.9 1.4 3.5 1.2zm-360.3-5.4c3.1 0.2 4.5-0.7 4.2-4.3-1.9 1-3.9 1.2-4.2 4.3zm-4.2-3.2c-3.2-2.1-3.3-2.1-5.7 0.3 2 1.2 3.8 1.1 5.7-0.3zm574.5 26c2.8 1.1 4.9 3.4 7.7 4.5-1.5-3.4-4.2-4.7-7.7-4.5zm-220.7-43.3c0.7-1.6 0.4-2.7-0.9-3.1-1.5-0.5-2.8-0.1-3.5 1.8 1.3 1.1 2.5 1.6 4.4 1.3zm18.6-74.7c-0.8-1.7-1.6-2.7-3.4-2.5-0.4 0.5-1.1 1.1-1.5 1.8-0.4 0.6-1.2 1.2-0.6 2.2 2.6-1.5 2.6-1.5 5.5-1.5zm-195.1-5.4c1.4-0.3 2.7-0.5 2.9-2.1-0.5-1.2-1.3-2-2.6-1.9-1.3 1-1.5 2.1-0.3 4zm-157.2 179.9c-3.5 3-3.5 3-3 7.3 0.5-3.2 2.3-5 3-7.3zm67.6-13.4c-1.3-2.1-2.8-3.4-5.8-2.2 1.7 2.2 3.7 2.3 5.8 2.2zm32.7-188.5c-1.1 0.7-1.7 1.5-1.2 2.9 1.2 0.7 2.3 0.9 3.3-0.4 0.4-1.4-0.3-2.1-2.1-2.5zm225.9 148.2c1.1 2.5 2.8 3.2 5.6 2.5-1.4-2.4-2.7-3.8-5.6-2.5zm-3.4 21.4c-2.4 1-3.5 2.3-4 4.7 2.6-0.6 4.4-1.2 4-4.7zm-19.8-141.2c1.4 0 2.4-0.2 3-1.9-1.3-0.6-2.2-2-4-1.4-0.8 1.4-0.1 2.3 1 3.3zm16.7 131.2c-1 3.8-1 3.8 2.2 4.1 0.6-2-0.1-3.4-2.2-4.1zm-76.9 43.1c-0.7 4.8-0.7 4.8 3.5 5-1.5-1.5-1.5-3.4-3.5-5zm206.5-79.2c3-1.7 3.7-4.3 2.7-7.3-0.8 2.4-1.9 4.8-2.7 7.3zm-296.4-111.5c-1 0.6-1.8 1.1-1.4 2.6 1.1 1.2 2.2 1.1 3.2-0.3 0.2-1.2-0.3-1.9-1.8-2.3zm-39.6-1.3c1.4 0.6 2.7 0.8 4-0.6-0.7-1.9-1.9-2.3-3.8-1.8-0.2 0.6-0.4 1-0.5 1.5 0 0.2 0.2 0.5 0.3 0.9zm211.3 155c4 2.7 4 2.7 5.5 0.6-1.6-0.7-3-1.6-5.5-0.6zm17.3-158.3c0.5-2.3 0.6-3.7-2.1-3.8-0.5 0-0.9 0.3-1.1 0.9 0.1 1.4 0.9 2.3 3.2 2.9zm-101 172c0.1 3.1 0.6 4.6 3.2 5.2 0.3-2.3-0.9-3.5-3.2-5.2zm-20.4 15.1c1.3 0.7 2.4 0.8 3.4-0.1 0.4-1.1 0.6-2.1-0.2-3.1-1.8 0.2-2.3 1.6-3.2 3.2zm-114.5-189c2.8 1.8 3.5 0.3 4.3-2-2.3-1.2-3.5-0.6-4.3 2zm226 17.8c1.5 0.9 2.8 1.2 4.1 0.2 0.1-1.3-0.4-2.2-1.7-2.6-1.2 0.1-2 0.7-2.4 2.4zm187.7-7.3c0.3-2.2 0.1-3.5-1.4-4.7-0.8 1.8-1.1 3.2 1.4 4.7zm-148.5 7.8c-3.2 1.3-3.2 1.3-3.8 5 1.6-1.8 3.1-3 3.8-5zm-396.9 87.2c-0.2 0.9-1.6 1.5-0.6 3 1.6 0.3 2.7-0.6 3.8-1.5-0.7-1.3-1.6-1.7-3.2-1.5zm100.6 74.7c-1.6-1.3-2.5-3.7-5.6-3.4 2.5 2.9 2.5 2.9 5.6 3.4zm495.8 27.7c0.9-1.9 3-3.5 3.2-6.6-2.4 2.1-3.1 4.2-3.2 6.6zm-414.1-184.3c0.6-3.2-0.5-3.8-3.3-3 0 2 0.9 2.8 3.3 3zm-13.6-4.3c1-0.2 2-0.3 2.2-1.9-0.5-0.9-1-2-2.7-1.5-0.8 1-0.7 2 0.5 3.4zm5.3 89.2c-2.3 2-2.4 3.7-1.5 6.3 1.5-1.9 1.5-3.6 1.5-6.3zm114.2-65.1c0.3 1 0.5 1.6 1.8 1.9 0.6-0.6 1.9-0.9 1.3-2.4-0.9-0.6-1.8-0.6-3.1 0.5zm24.3-28.5c-1.1 0.4-2.1 0.9-2.3 2.5 1.5 0.3 3 0.5 4.4-0.3-0.2-1.4-1.1-1.8-2.1-2.2zm257.9 128.5c2.8 3.4 2.8 3.3 5.9 2.6-1.9-0.8-3.5-1.5-5.9-2.6zm-408.9-134c2.4-0.4 3-1.4 2-3.5-1.6 0.5-2.9 0.9-2 3.5zm-41.7-2.7c-1.7-1.4-2.9-1.5-3.6 0.9 1.6 1.2 2.7 1.1 3.6-0.9zm483.9 183.3c-0.9 1.9-1.4 3.7 0.3 5.4-0.2-1.7-0.2-3.5-0.3-5.4zm-434.8-184.2c0.1 2.7 1 3.2 3 2.2 0.1-1.9-0.6-2.8-3-2.2zm177 230.9c0.6 1.1 1.2 1.7 2.6 1.7 0.5-0.7 1.9-1.1 1.2-2.6-1.3-0.7-2.4-0.3-3.8 0.9zm-55-122.4c2.4-0.1 3.6-0.6 4.1-2.8-2.3-0.4-3.3 0.5-4.1 2.8zm-0.6 4.2c0.6 2.1 1.5 2.8 3.3 2.5 0.4-2.7-0.7-3.3-3.3-2.5zm177.8-4.1c-2.1 1.7-3 3-2.8 5.2 1.3-1.5 2.1-2.8 2.8-5.2zm-126.3-94.6c-1.4 1.6-1.4 1.6 1 2.5 0-1.1 0.2-2-1-2.5zm-20.8-15.6c-1.9-0.4-2.6 0.1-2.6 2 1.6 0.5 2.7 0.7 2.6-2zm-34.7 118.7c1.1-1.3 1.4-2.5 0.2-3.9-1.7 1.2-1.9 2.2-0.2 3.9zm320.4 56.3c-0.4-2.1-0.8-3.7-1.1-5.2-1.1 1.8-1.2 3.4 1.1 5.2zm-225.7-136.3c1.3 2.1 1.3 2.1 2.9 0.8-0.8-1-1.7-1.3-2.9-0.8zm-26.4 96.1c-0.8-2-2.1-2-3.6-2.1 0.5 2.2 1.5 2.7 3.6 2.1zm-53.6-28.7c-1.1-1.3-2-2.2-3.8-1.5 0.9 1.3 1.4 3.1 3.8 1.5zm92.3 35.5c-1.4 0.5-2.2 1.2-2 2.6l1.4 0.7c0.8-0.9 1.3-1.8 0.6-3.3zm66.4-28c-1.2 2.1-1 3.8-0.3 5.6 1.1-1.6 0.9-3.1 0.3-5.6zm-174.3-7.6c-0.2-1.4-0.5-2.4-2.1-2.1-0.4 0.9-0.6 1.6-0.1 2.4 0.7 0.4 1.2 0.2 2.2-0.3zm-155.1-103c-1.7 1-2 2-0.8 3.5 1.4-0.5 2.2-1.2 0.8-3.5zm228.1-6.7c-0.4 2.1-0.4 2.1 1.5 2.8 0.3-1.2 0.3-2.2-1.5-2.8zm-46.7 2.4c1.4 0.8 2.4 1 3.2-0.2-1.4-1.4-1.4-1.4-3.2 0.2zm33.6 134.7c-0.4 1.5-0.3 2.5 1.3 2.3 0.6-0.1 1.1-0.6 0.9-1.4-0.3-0.8-0.9-1.1-2.2-0.9zm-34.7-50.5c0.2 0.8 0.2 1.3 0.4 1.6 0.3 0.5 0.7 1.1 1.3 0.3-0.2-0.7-0.1-1.6-1.7-1.9zm28.6 106.1c1-2.4 1-2.4 0-4.3-0.7 1.5-0.7 2.9 0 4.3zm270.5-30.6c0.1-1.4-0.6-1.6-1.7-1.2 0.5 0.7 0.8 1.4 1.7 1.2zm-231.5-69c-0.6 1.1-0.5 1.8 0.3 2.4 0.9 0.1 1.6-0.2 1.9-1.2-0.5-0.6-1.1-1.2-2.2-1.2zm-3.5 85c-1.6-0.4-2.5-0.8-3.3 0.5 1 1.6 1.8 1.3 3.3-0.5zm-28.4 7.4c-1-0.1-1.9-0.2-2.1 1.6 1-0.2 2 0.3 2.1-1.6zm-180.4-93.7c0.5 1.4 1.4 1.7 2.7 1.3-0.5-1.4-1.4-1.8-2.7-1.3zm183.7-0.6c0.7-1.6 0.8-2.8-0.3-4.2-0.3 1.4-1 2.6 0.3 4.2zm-231-93.9c-1.1 1.9-1.5 3.1 0.8 3.7 0.8-1.3 1-2.3-0.8-3.7zm171.7 105.6c-1.3 1.8-0.7 2.4 0.7 2.9 1-1.2 0.7-1.9-0.7-2.9zm5.3 1.8c0.8-1 1-1.5 0.5-2.1-2.2 0-2 0.7-0.5 2.1zm-104.3 43.6c0.4 1.6 1.1 2.5 2.9 1.6 0.2-0.1 0.2-0.5 0.4-1-1.1 0-1.8-1.3-3.3-0.6zm142.7-115.8c1.7 1 2.7 0.8 3.8-0.3-1.6-1.7-2.6-1.3-3.8 0.3zm-33.5 63.8c-1.6 0-2.5 0.3-2.5 1.7 1.6 0.4 2.2-0.3 2.5-1.7zm130.4 75.9c1.1 0 1.9 0 2-1-0.9-0.6-1.4-0.3-2 1zm-38.4-36c0.6 1 1 1.6 2.2 1.2 0.2-1.3-0.4-1.8-2.2-1.2zm-27.8 32.3c1.3 0.2 1.6-0.2 1.5-1.2-1-0.4-1.5-0.1-1.5 1.2zm-54.2-71.6c1.4-1.2 1.5-2-0.2-2.7-0.5 0.7-0.8 1.4 0.2 2.7zm151.1 43.6c-0.4 1-0.8 1.5 0 2 0.4-0.3 0.5-0.8 0-2zm-111.9-40.4c-0.8 0-0.9 0.5-0.9 1 0 0.6-0.1 1.4 0.9 1.4 0.6-0.9 1-1.7 0-2.4zm-71.5 25.8c0.1 1.3 0.6 1.7 1.8 0.9-0.3-1.2-0.8-1.5-1.8-0.9zm94.5-18.5c-0.9 1-1.4 1.7-0.3 2.4 1-0.6 1.2-1.3 0.3-2.4zm-19.2-101.9c0.6-0.8 0.6-1.4-0.2-1.7-0.2-0.1-0.7 0.1-0.8 0.3-0.4 0.8-0.1 1.3 1 1.4zm-50 78.8v-0.4c-0.1-0.1-0.3-0.1-0.4-0.1-0.4 0.3-0.3 0.5 0 0.7 0.1 0 0.3-0.1 0.4-0.2zm143.1 66.9c-0.1 0.9 0.2 1.2 0.9 1.3 0.2-0.6 0.4-1.2-0.9-1.3zm-106.2 1.9c0.6-0.4 1.5 0 1-1.4-0.6 0-1.1 0.1-1 1.4zm-47.9-58.6c0.7-0.2 1.4 0 1.2-1.1 0-0.1-0.2-0.1-0.3-0.2-0.6 0.1-0.8 0.4-0.9 1.3zm-127.1 19.3c-0.4 0.8-0.5 1.4 0 1.4s0.5-0.7 0-1.4zm173.9 31.6c0.9-0.7 0.9-1.2 0.2-1.8-0.8 0.3-0.7 0.9-0.2 1.8zm-38.8-117.1c0.7-0.5 0.6-1 0-1.5-0.8 0.5-0.6 1 0 1.5zm-248.7 182.8c-1 0.5-1.3 1 0 1.6 0.5-0.5 0.5-1 0-1.6zm400.6-80.2c-0.1 0.1-0.3 0.2-0.2 0.3 0.1 0.2 0.2 0.4 0.4 0.6 0.2-0.3 0.4-0.6-0.2-0.9zm-113 30.4c-0.8 0.6-0.9 1.2 0.1 1.6 0.7-0.6 0.5-1.1-0.1-1.6zm-9.9 10c0.6-0.4 0.7-0.7 0-1.1-0.4 0.3-0.3 0.7 0 1.1zm9.4-0.9c0.6 0.9 1.1 0.8 1.6-0.1-0.6-0.7-1.2-0.6-1.6 0.1zm-9.3-14.3c-0.6 0.3-0.5 0.7-0.1 1.1 0.5-0.4 0.6-0.7 0.1-1.1zm-123.1 18.6c-0.4 0.3-0.4 0.7-0.1 1.1 0.5-0.4 0.5-0.7 0.1-1.1zm-57-36.1c0.5-0.3 0.5-0.7 0-1.1-0.4 0.3-0.5 0.7 0 1.1zm325.8-35.2c0.5 0.3 0.9 0.6 1.2-0.1-0.4-0.5-0.8-0.3-1.2 0.1zm-474.1-6c0.5 0.7 1.1 0.6 1.2 0.2 0-0.5-0.5-0.6-1.2-0.2zm328.3 83.6l0.2-0.3-0.3-0.1 0.1 0.4zm263.9-31.7c0.2-0.2 0.3-0.4 0.4-0.5-0.1-0.1-0.2-0.1-0.3-0.2 0 0.2 0 0.4-0.1 0.7zm-511.7 34.1c-0.3-0.1-0.6-0.4-0.8-0.4-0.5 0.1-0.5 0.5 0 0.6 0.2 0.1 0.5-0.1 0.8-0.2zm243.7-27.1l0.2-0.3h-0.3l0.1 0.3zm254.1-97.7l0.2-0.3h-0.3l0.1 0.3zm-214.2 101.9l0.3 0.2v-0.3l-0.3 0.1zm-7.9-9.9l0.2-0.3h-0.3l0.1 0.3z"/>
<path fill="#000000" d="m590.9 345.8c-0.8-1.4-0.8-2.3 0-3.5h43.1c11.3 26.9 22.5 53.8 33.8 80.8 0.4 0 0.9 0.1 1.3 0.1 11.3-26.9 22.5-53.8 33.9-80.9h43.2c0.7 1.3 0.6 2.2 0.1 3-1.4 1.1-3 0.9-4.4 1.2-6.7 1.5-9 3.7-10 10.6-0.4 2.6-0.5 5.3-0.5 8v72.5c0 2.8 0.2 5.6 0.5 8.5 0.7 4.9 3.3 7.8 8.2 8.8 2.1 0.4 4.3 0.3 6.2 1.5 0.9 1.1 0.6 2.2 0.1 3.5h-56.2c-0.7-1.2-0.7-2.1-0.2-3.2 1.6-1.3 3.7-1 5.6-1.4 6.1-1.2 8.5-4 9.1-10.1 0.6-6 0.4-12 0.4-18v-65.5c0-1.9 0.5-4-1.1-6.9-14.8 35.4-28.8 70.3-43.2 105-0.8 0.1-1.5 0.3-2.1 0.3s-1.3-0.2-2.2-0.3c-14.2-33.8-28.5-67.6-42.9-101.9-1.5 1.8-1.1 3.2-1.1 4.4v78c0 2.9 0.4 5.6 1.6 8.3 1.9 4 5.5 5.6 9.5 6.5 2.1 0.5 4.3 0.4 6.1 1.3 0.8 1.1 0.6 2.1 0.2 3.4h-39c-0.6-1.2-0.6-2.1-0.2-3.1 1.8-1.3 3.9-1.1 5.8-1.5 6-1.2 8.3-3.6 9.1-9.6 0.2-1.8 0.3-3.7 0.3-5.5v-78.5-1c-0.1-9.8-2.3-12.4-11.7-14.2-1.2-0.3-2.2-0.5-3.3-0.6z"/>
<path fill="#000000" d="m114.7 345.7c-0.5-1.3-0.6-2.1 0.1-3.3h57c0.9 0.8 0.5 1.8 0.4 2.9-1.8 1.2-4.1 1-6.1 1.5-6.5 1.4-9.4 4.2-9.8 10.7-0.7 12.3-0.2 24.6-0.3 37.2h41.7c1.4-1.3 1-2.9 1-4.4v-29.5c0-1.5-0.1-3-0.3-4.5-0.8-5.5-3.3-8.2-8.7-9.5-1.9-0.4-3.9-0.8-5.5-1.1-1-1.2-0.9-2.1-0.3-3.4h57c0.8 1 0.6 1.9 0.2 3.3-2 0.5-4.3 0.9-6.5 1.5-5 1.4-8 4.6-8.3 10-0.1 1.8-0.3 3.7-0.3 5.5v78 1.5c0.2 9.1 2.5 11.8 11.4 13.3 1.1 0.2 2.3 0.5 3.3 0.7 1 1.1 0.8 2.2 0.4 3.6h-57c-1-1.3-0.7-2.3-0.3-3.3 1.6-1.1 3.4-0.9 5-1.3 7.1-1.5 9.8-4.6 10-12.1 0.1-8.2 0-16.3 0-24.5v-14.9h-42.7c0.1 14.7-0.6 29.1 0.5 43.6 0.3 3.9 3.3 5.9 6.9 7.1 2.8 1 6 0.6 8.6 2 0.7 1.1 0.4 2 0.3 3.3h-57.1c-0.7-0.6-0.8-1.3-0.8-1.9 0-0.5 0.3-0.9 0.4-1.3 1.8-1.3 3.9-1 5.8-1.5 5.1-1.3 7.3-3.8 8-9 0.2-1.3 0.2-2.7 0.2-4v-80.5c0-1.3 0-2.7-0.1-4-0.6-6-3.2-9-8.9-10.6-1.9-0.3-3.5-0.7-5.2-1.1z"/>
<path fill="#000000" d="m798 402.8c-1.1 1.6-0.9 2.8-0.9 3.9v37 1.5c0.4 6.2 2.1 8.6 8.2 9.3 20.1 2.3 37.9-3.7 48-22.8 1.2-2.4 2.3-4.8 3.5-7.1 1.5-0.8 2.8-1 4.9 0.2-2.1 11.4-4.3 22.9-6.5 34.8h-101.1c-0.7-1.1-0.4-2-0.3-3.1 2-1.2 4.2-1 6.3-1.4 5.9-1.2 8.3-3.8 8.6-9.9 0.3-5.6 0.3-11.3 0.3-17v-63c0-2.8-0.1-5.7-0.3-8.5-0.6-6.1-3.1-8.8-9.2-10.1-1.8-0.4-3.6-0.7-5.1-0.9-1-1.1-0.8-2.1-0.4-3.4h99v34.1c-1.2 0.8-2.2 0.7-3.6 0-0.6-2.4-1.1-5-1.8-7.5-3-10.7-9.7-17.6-20.8-19.9-7.6-1.5-15.2-1.7-22.9-1.2-4.1 0.3-6.2 2.1-6.4 5.7-0.7 14.1-0.2 28.2-0.3 42.3 14.5 3.4 22.8-4 28.1-24.3 1-0.9 2.1-0.8 3.6 0v56.9c-1.1 1-2.2 0.9-3.7 0.2-1.5-8.3-2.5-17.1-10.9-22.2-5-3.1-10.5-4.1-16.3-3.6z"/>
<path fill="#000000" d="m248.3 459.7c-0.6-1.3-0.7-2.2-0.1-3.2 1.8-1.3 4.1-1 6.2-1.4 6.1-1.3 9-4.5 9-10.8 0.1-28.5 0.1-57 0-85.5 0-7.6-3-10.8-10.5-12.2-1.5-0.3-2.9-0.6-4.2-0.8-1-0.9-0.9-1.9-0.6-3.3h99.3c0.5 11.2 0.1 22.6 0.2 33.6-1.4 1.3-2.4 1.2-3.8 0.4-1.3-3.2-1.7-6.9-3-10.3-3.6-9.4-10.1-15.1-19.9-17.1-7.6-1.6-15.2-1.8-22.9-1.1-4.9 0.4-7 2.5-7.1 7.3-0.2 13 0 26 0 39 0 0.6 0.3 1.2 0.5 2.2 7.4 0.1 14.3-0.6 20-5.9 5.5-5.2 6.7-12.4 8-18.9 1.4-1 2.4-0.9 3.7-0.4v57.2c-0.4 0.2-0.8 0.5-1.2 0.6-0.6 0.1-1.3-0.1-2.2-0.2-0.9-3.4-1.5-6.8-2.6-10.1-3.6-11.6-13.1-17.4-25.5-15.6-1.2 1.4-0.8 3.1-0.8 4.7 0 12.2-0.1 24.3 0 36.5 0 6.8 2.1 9.6 8.9 10.3 20.8 2 37.5-3.9 48.1-23.7 1.2-2.2 2.3-4.4 3.2-6.2 1.5-1 2.6-0.8 4.3-0.2-2.2 11.7-4.4 23.4-6.7 35.3-33.5-0.2-66.8-0.2-100.3-0.2z"/>
<path fill="#000000" d="m942 344.7c2-1.5 2.3-3.5 3.3-5 1.2-0.7 2.5-0.6 4.2 0v36.9c-1.1 0.8-2.1 0.6-3 0.5-1.4-1.1-1.5-2.6-2-4-2.8-7.4-6.5-14.3-12.3-19.8-7.1-6.9-15.5-10.5-25.4-8.3-7.1 1.5-11.9 6.1-13.4 13.3-1.5 7.3 0.7 13.5 7 17.9 4.8 3.4 10 5.9 15.2 8.6 6.5 3.3 13.1 6.5 19.7 9.8 13.6 6.9 20.1 18.6 19.7 33.3-0.4 14.9-8.2 25.8-22.1 31.7-12.1 5.2-24.6 5-37.2 1.7-2.6-0.7-5.1-1.6-7.6-2.4-6.6-2.1-7.5-1.8-10.8 4.1-1.4 0.9-2.8 0.7-4.5 0.1v-41.8c1.3-1.1 2.7-0.8 4.4-0.3 1.1 3.4 2 6.9 3.3 10.3 2.9 7.7 6.9 14.8 13.5 20 8.4 6.5 17.8 8.2 27.8 5.1 13.2-4.1 17.2-21.6 7.3-31.3-3.1-3.1-6.9-5.1-10.9-7-5.9-2.8-11.9-5.2-17.7-8.1-6.3-3.1-12-7.1-17-12.1-10.2-10.3-11.5-22.5-7.4-35.6 4-12.7 13.4-19.3 26.1-21.8 10.3-2 20.2-0.3 29.9 3.3 3.4 0.7 6.5 2.2 9.9 0.9z"/>
<path fill="#000000" d="m22 459.7c-0.5-1.2-0.5-2-0.2-3 1.9-1.3 4.3-1.1 6.5-1.5 6.5-1.1 9.3-3.9 10.1-10.4 0.2-1.3 0.2-2.7 0.2-4v-88c0-1.5 0.3-3-0.5-4.4-13.3-1.2-29.6 3.5-33.6 28.2-1.4 0.7-2.8 0.8-4.3-0.2 0-4.1-0.3-8.3 0.1-12.4 0.6-7.1-0.3-14.3 0.9-21.7h102.7v34c-1.1 0.9-2.2 0.8-3.6 0.2-1.8-9.3-4.3-18.4-13.3-23.8-6.1-3.7-12.9-4.9-19.7-4.9-1.2 2.2-0.8 4.1-0.8 5.9v86.5 3.5c0.5 7.8 3.1 10.7 10.9 11.6 1.8 0.2 3.6 0.5 5.2 0.7 1.3 1.1 0.9 2.2 0.7 3.7h-61.3z"/>
<path fill="#000000" d="m414.3 376.4c-1.6 1-2.9 0.9-4.6 0.2-0.2-11.2 0.2-22.6 0.8-34.2h103c0.6 11.5 1 22.7 0.9 33.8-1.5 1.4-2.9 1.2-4.6 0.3-1.8-9.1-4.4-18.1-13-23.6-6.2-4-13.2-5.1-20.3-5-1.4 2-0.9 3.9-0.9 5.7v83.4c0 3.1 0.3 6.3 0.8 9.4 0.7 5.2 3.1 7.6 8.3 8.6 2.4 0.5 4.9 0.7 7.1 1 1.2 1.2 0.9 2.3 0.5 3.7h-60.1c-1-1-0.8-1.9-0.6-3 1.8-1.4 4-1.1 6.1-1.5 6.8-1.1 9.3-3.5 10.3-10.2 0.3-2 0.5-4 0.5-6v-86.4c0-1.3 0.2-2.7-0.7-4.5-8.2-0.4-16.1 1.2-22.9 6.7-7 5.5-9 13.7-10.6 21.6z"/>
<path fill="#000000" d="m524.2 459.8c-0.9-1.1-0.7-2-0.4-3.1 1.7-1.5 4-1.1 6.1-1.6 6.3-1.5 9-4.2 9-10.7 0.1-28.7 0.1-57.3 0-86 0-7.3-2.8-10.2-9.8-11.7-1.6-0.3-3.2-0.7-4.7-0.9-1-1-0.8-2-0.5-3.3h58.9c0.7 1.1 0.6 2-0.1 3.4-2 0.4-4.2 0.7-6.5 1.2-5.5 1.4-8.2 4.3-8.8 10.1-0.2 1.6-0.2 3.3-0.2 5v79 3.5c0.4 6.6 3.1 9.5 9.7 10.6 2 0.3 4 0.2 5.9 1.2 0.7 1 0.7 2.1-0.1 3.4-19.4-0.1-39-0.1-58.5-0.1z"/>
<path fill="#000000" d="m281.8 13.7c5.2-0.6 9.3-0.5 13.4 1.1-1.5 3.9-1.5 3.9-6.4 6.8-2.9-1.7-4.2-4.8-7-7.9z"/>
<path fill="#000000" d="m649.5 116.4c-1.8-1-2.4-2.5-2.7-4.6 2.6-0.1 4.6 1 6.7 1.7-1 1.9-2.4 2.6-4 2.9z"/>
<path fill="#000000" d="m649.4 123c0.2-2.7 0.9-5.1 4.1-5.8 0.5 3.9-0.2 4.8-4.2 5.7l0.1 0.1z"/>
<polygon fill="#000000" points="357.6 71.8 357.5 72 357.6 71.9"/>
<path fill="#000000" d="m527.9 116.2c5.9 4 11.6-1 17.2 1-2 5.6-6.3 9.8-8.3 15.5 5.9 1 10.3-1.4 14.7-4.4 1.5 1.4 1.6 3.2 2.3 5-4.9 1.6-9.6 3.2-14.3 4.7-1 3.1 1.5 4.5 3 7-3.7 0.8-4.9-1.5-5.6-4.1-1-4-1.5-8.2-3.3-11.8-0.4-1.7 1.6-2.3 1.4-3.8-0.1-1.6-0.5-3.2-1.7-4.1-1.7-1-2.7 0.7-4.4 0.2-1.6-2-3.3-4.2-5.3-6.7 2.4-2.1 4.2-4.5 5.7-7.6-3.6-0.8-6 2.5-9.3 2.1-1.6-3.5 1.8-6.5 1.3-10-4.5 1.4-4.5 1.4-7.1 5.6-1.7-0.1-2.6-1.1-3-3 6-1.6 9.3-6.4 12.8-10.8 1.6 0.2 2.6 1.1 3.3 2.2 1 4.7-4.1 7.6-3.7 12.3 4.8 1.4 7.8-3.6 12.4-3.2 1.1 0.3 2.1 1.1 2.2 3-4.4 2.4-7.1 6.5-10.3 10.9zm10.1 4c-0.1 0.1-0.3 0.2-0.3 0.2 0 0.1 0.1 0.2 0.2 0.3 0.1-0.1 0.3-0.2 0.3-0.2 0-0.1-0.1-0.2-0.2-0.3z"/>
<path fill="#000000" d="m540.9 215.8c-3.9 0.3-7.4 0.6-10.9 1-0.4 0-0.9 0.4-1.4 0.7 1.3 3.1 3.7 5 6.5 6-0.3 1.9-1.3 2.3-2.8 2.7-2.7-4.8-7.4-7.8-11.7-11.6 4.6-3.7 10-0.8 14.7-2.9-1.1-3.3-3.4-5.2-6.9-6.5 3.4-5.7 5.4-11.7 8-18.4 4.5 4.8 9.4 7.9 15.6 8.4-1.5 9.8-3.7 12.4-8.4 10 0.7-1.7 3-1.4 3.9-3.6 0.6-2.6-1.6-3.3-3.5-4.1-2.5 1.2-0.7 2.8-1 4.2-1.7 0.8-2.9-0.1-4.1-1.1-0.3-2 2.7-1.9 2.4-4.2-0.9-1.8-3-1.6-4.9-2.1-2.3 2.3-3.4 4.6-1.4 7.5-0.7 1-1.7-0.3-2.9 0.9 1 5.8 6.2 7.4 10.9 9.9 0.3 1.3-0.9 2.2-2.1 3.2z"/>
<path fill="#000000" d="m474.8 91.5c0.6 1.9 2.6 2.1 3.1 3.6-3.5 0.9-3.5 1-6.7-1.9-2-1.8-4.2-3.2-6.4-4.5-3.4-6.3-2.8-12.3 1.4-15 3.4-2.2 9.7-1.1 12.4 2.1 2.9 3.6 1.2 10.8-3.8 15.7zm-4.5-16.7c-4.4 7.9-4.2 11.9 0.7 14.5 3.6-1.9 4.4-3.8 3.9-9.1-0.3-2.9-1.4-5.1-4.6-5.4z"/>
<path fill="#000000" d="m397.7 188.5c2.6 0.3 3.5-1.8 5.1-3.2 1.8 1.7 1.6 3.9 2.9 6.1-6 0.5-11.1 1.5-15.5 4.7-1.8-1.2-1.7-3.1-2.2-4.6 1.7-1.8 3.8-0.5 5.4-1.5 1.3-4.8 1-6.1-2.4-8.9-2-0.1-2.5 2.1-4.1 2.9-1.7-1.3-1.5-3.5-2.4-5.5 5.6-1.3 11.5-1.2 15.4-5.9 2 1.8 1.8 4 1.9 6.2-2.3 0.2-4.7 0.1-6.8 2.1 0.1 2.8 0.2 5.7 2.7 7.6z"/>
<path fill="#000000" d="m411.6 100.5c1.2-5.2 5.7-10 9.7-10.2 5.8-0.4 7.7 4.3 10 8-0.5 5.2-4 10.2-7.8 10.5-6.2 0.6-8.7-4.4-11.9-8.3zm15.8-1c-2.2-3.4-4.5-6.8-9.5-5.6-2.3 3.2-1.1 5.9 0.9 8.3 1.9 2.3 4.2 4.3 7.6 2.9 0.7-1.8 1.1-3.6 1-5.6z"/>
<path fill="#000000" d="m456.8 86.6c-6.5-7.6-6.5-7.6-10.5-8.1 1.2 5 1.5 10.2 5.6 14.2-1.5 2.4-4.1 2-6.5 2.9-1.4-5.1-0.5-11-5-14.5-2.2 0.2-1.9 2.5-3.4 3.1-1-0.7-1.4-1.7-1.2-3.3 4.8-1.5 8.8-5.6 13.8-5 2.3 1 2 3 3.4 3.9 1.8-0.3 3.5-1.1 5.3-0.4 2.4 3.6 2.3 4.2-1.5 7.2z"/>
<path fill="#000000" d="m401 161.6c-0.3 2.7-1.7 5.3-1.6 7.8-4.6 4.3-10.8 4.4-13.8 0.7-3.8-4.8-3.2-10.7 1.5-13.9 4.4-3 10.5-0.7 13.9 5.4zm-3 5c0.8-4.8-0.4-6.4-4.8-6.8-5.9-0.6-7.7 0.8-7.8 6.3 4.1 2 8.3 3.4 12.6 0.5z"/>
<path fill="#000000" d="m396.1 139.4c-2.9-1.6-5.7-2-8.3-2.9-0.3-0.9-0.3-1.7 0.5-3 4.7 2.8 10.3 3.5 16.1 6-3.6 4.9-9.4 4.7-13.2 8 1.1 2.1 3.5 2.3 4.3 3 2.4 1 3.7-0.4 5.3-0.1 1.1 1.7-0.4 2.6-1.1 4-4.5-3.6-9.5-4.2-15.1-4.1-0.1-7.6 8-6.7 11.5-10.9z"/>
<path fill="#000000" d="m557.1 177.1c-1.3 11.4-2.5 13.4-8.1 13.5-3.6-2.3-2.7-6.5-3.7-9.7-1.4-2-3.3-2.2-5.3-2-0.7-2.1 0.3-3.8 0.8-5.9 5 3 10.3 4.5 16.3 4.1zm-2.5 5.6c-2.3-2-4.5-2.2-6.9-1.2 2.1 4.5 3.9 4.8 6.9 1.2z"/>
<path fill="#000000" d="m515.5 239.8c-4.4 2.2-7.9 4-11.2 5.6-1.5-0.3-2.5-0.7-2.6-2.4 1.7-1.2 4.3 0.2 6.1-1.8 0.6-1.9-0.1-3.6-1.6-5.1-1.5 0.2-2.4 1.1-3.2 2-1.2-0.7-1.6-1.6-1.9-2.6 0.3-2.1 3.4-0.6 3.6-2.9 0.4-1.9-0.7-3-2.4-3.8-3.6-0.1-4.7 2.3-5.3 5.4-2-0.7-1.6-2.3-1.6-3.9 3.5-2.1 7-4.1 11.3-5.4 2.3 5.3 2.5 11.4 8.8 14.9z"/>
<path fill="#000000" d="m539.3 156.2c8.7 3.2 11.8-3.8 17.2-6.8 1.2 1.6 1.7 3.4 1.7 5.4-1.8 1.7-4.7 2-5.6 4.3 1 3.5 5.7 1.7 7.2 5.9-6.4-2.2-11.9-6.9-18.2-1.7-1.6-1.8-1.2-4-2.3-7.1z"/>
<path fill="#000000" d="m408.6 104.7c-1.6 1.6-4.5 0.3-5.2 3.3 0.9 2 2.6 2.4 4.8 1.8 1.4-0.4 2.9-0.7 4.4-1.1 1.9-0.5 3.6-0.1 4.9 1.5 1.4 1.7 1.5 3.7 0.5 5.6-1.1 2.2-2.6 4.2-4.6 6.1-1.9-0.7-3.4-1.7-4.4-4 2.8-0.8 6.5 1.7 7.8-2.8-4.2-4.6-10.4 2.3-14.5-2-1.7-4.1 0.8-6.8 2.4-9.6 1.6-0.8 2.7 0.1 3.9 1.2z"/>
<path fill="#000000" d="m491.5 94.8c-7.6-1.9-9.3-4.5-7.6-11.6 0.7-2.9 1.3-5.8 1.4-8.7 1.8-0.5 2.9 0.5 4.6 1-2.4 4.9-3.2 9.7-2.5 14.7 3.3 2.6 6.2 2.1 7.8-1.6 1.4-3.3 2.9-6.7 1.5-10.3 1.4-1.2 2.4-0.1 3.4-0.2 0.1 0.5 0.2 0.9 0.1 1.1-3.1 4.9-2.2 12.2-8.7 15.6z"/>
<path fill="#000000" d="m512.2 219.9c0.3 1.3 0.6 2.6 0.8 3.9 3.9 2.6 9.1-0.2 12.7 3 1.1 5.2 0.7 6.1-4.5 9.1-1.5-0.1-2.4-0.8-2.8-2.7 2.1-0.8 5.6 1.3 6.3-2.9-3.8-2.6-8.4 0.6-12.3-1.7-2.7-3.7-2.8-4.7-0.1-8.5l-0.1-0.2z"/>
<path fill="#000000" d="m440.5 97c-1.4 2.2-3.1 3.2-5.6 3.3-1.3-5.3-3.1-10.2-7.5-13.7 1.2-2 2.7-3.2 4.8-4.1 1.4 5.7 3.7 10.8 8.3 14.5z"/>
<path fill="#000000" d="m502.2 98.9c-1.6-0.9-2.9-1.6-4.5-2.5 4-4.7 5.4-10.4 7.1-16.1 1.9 0.5 3.8 1 5.5 2.7-4.9 4-6.2 9.8-8.1 15.9z"/>
<path fill="#000000" d="m404.9 135.2c-3.7-4.6-9.3-5.2-14.5-6.2 0-2.5 1.4-3.9 2.5-6 4.1 4.5 9.8 5.1 14.5 7.4 0.3 2.3-0.7 3.6-2.5 4.8z"/>
<path fill="#000000" d="m553.1 145.1c0.6 3-0.6 5-3.7 5.2-3 0.2-4-1.7-3.9-4.4 3.6-3.4 3.7-3.4 7.6-0.8z"/>
<path fill="#000000" d="m554.1 171c-0.8 1.1-1.9 1.8-3.3 2.1-3-0.5-4.1-2.3-3.9-5.2 1.5-2.3 3.6-2.1 5.7-1.4 1.6 1.2 1.9 2.7 1.5 4.5z"/>
<path fill="#000000" d="m508.5 93.7c0.2-1.9 1-3.1 2.5-3.8 2.4-0.3 3.9 1.1 5 3.1-2.6 5-4.3 5.2-7.5 0.7z"/>
<path fill="#000000" d="m405.3 122.4c-3.9 2.2-3.9 2.2-6.2-1.5 0.1-2.1 1.1-3.7 3.2-4.8 2.4 1.3 3.4 3.3 3 6.3z"/>
<path fill="#000000" d="m512.4 220c1.2-1.9 3.2-2.7 5.1-3.8 1.7 0.4 2.8 1.5 3.2 3.7h-8.4l0.1 0.1z"/>
<path fill="#000000" d="m252.7 258.6c1-5.5-1.1-10-3.1-14.5 4.4-3.4 10.5-4.3 13.5-1.7-2.4 0.9-5.4-2.1-7.2 1.4-0.3 1.4 0.4 2.7 0.9 3.8 1.9 0.8 2.8-1.1 4.3-1.2 1 0.7 1.2 1.6 1 2.7-1.3 1.3-2.8-0.7-4.4 0.4-0.7 2.1-0.8 4.3 0.8 6.4 3.3-0.1 4.6-3 6.7-4.6 1.3 1 1.2 2.1 0.8 3.4-3.7 3.2-8.3 3.4-13.3 3.9z"/>
<path fill="#000000" d="m337 228.2c-2.6-1.6-5-2.1-7.6-0.9-1.3 1.7-0.6 3.1-0.2 4.3 2 1.3 3-0.5 4.3-0.8 1.3 1.1 1.1 2.3 1 3.4-1.6 1.3-2.6-1-4.2 0-1 1.7-0.7 3.5 0.3 5.1 3.1 1 5-1.1 7.4-1.9 1.1 1 0.6 2-0.2 3.1-4.1 0.3-8.3 1.4-13 1.2 0.8-5.5 0.3-10.5-1.4-15.6 4.4-0.9 8.7-0.3 13-0.3 0.6 0.1 0.9 1 0.6 2.4z"/>
<path fill="#000000" d="m353.6 238.7c-1.9 0.3-3.5 0.9-5.3 0.4 0.2-4.4 1-8.8-0.8-12.7-2.5-1.3-3.4 1.2-5.1 1.5-1.3-0.8-1.4-1.9-0.7-3.2 3.8-0.4 7.7-1 11.6-1.1 2.4-0.1 5.1 0.3 5.3 3.8-1.7 0.5-2-1.7-3.9-1.3-3.1 3.5-0.8 8-1.1 12.6z"/>
<path fill="#000000" d="m235.8 246.6c3.4-1.6 3.4-1.6 7.2-1-2 5.6 0.5 10.3 2.9 15.2-2 2-4.5 0.9-7.2 1 1.4-5.7-0.3-10.4-2.9-15.2z"/>
<path fill="#000000" d="m300.7 237.9c2.1-3.6 2.1-3.6 6.6-3.4 2.6 3.4 2.4 4.4-1.3 7.5-2.3-0.7-4.7-1.3-5.3-4.1z"/>
<path fill="#000000" d="m562.9 227.5c1.6-1.6 3-1.5 4.6-1.1 2.8 2.5 4.5 6.1 7.7 8.5 2.1-2.1 1.9-5 2.7-7.4 1.3-3.9 2.8-4.5 7.3-3.1-2 5.2 1.3 9.8 1.7 14.8-1.9 0.9-3.8 0.6-5.8 0.1-0.5-2.4 0.5-5-1.1-7.4-3.7 1.6-2.1 7.2-6.5 8.3-3.1-1.4-3.7-5.3-6.4-7.2-1.2 3.4-1.2 3.4 0.4 7.8-0.6 1-1.5 1.1-3 1.2 0.8-5 0.2-9.8-1.6-14.5z"/>
<path fill="#000000" d="m692.2 259.5c-3.7-1.1-3.7-1.1-9.3-8.1-2.3 1.4-1.1 3.9-2 6.1-1.8 0.1-3.6-0.5-6-1.1 3.6-4.8 3.7-10.3 4.3-16.1 5.4 1.2 11.2 0.3 14.1 6-0.4 2.6-2.5 3.2-3.7 4.6 0.8 2.8 1.7 5.6 2.6 8.6zm-3.5-13.7c-1.6-1.2-2.9-1.6-4.5-1.1-0.9 0.9-1.6 1.7-0.8 3.1 1.9 0.4 3.8 0.5 5.3-2z"/>
<path fill="#000000" d="m715.2 249.7c0.8 4.9 1.1 9.5-3 13-5.3 1.2-7.7 0.8-12.9-1.9-3-6.1-2.7-10.2 0.8-13.1 3.9-3.3 9.5-2.6 15.1 2zm-10.8 11.3c4.4 0.1 5.5-0.7 6.8-4.9 0.8-2.9-0.2-6-2.5-7.5-2.2-1.5-4.9-0.9-5.7 1.7-1.1 3.7-1.6 7.5 1.4 10.7z"/>
<path fill="#000000" d="m655.4 235.1c4 0 7.9 1.1 11.5 2.6 3.8 1.7 5.3 4.5 4.6 7.8-0.7 3.2-3.5 5.4-7.3 5.5-4.6 0.2-9.2-0.3-14.1-1.8 3.6-4.3 4.5-9.3 5.4-14.3l-0.1 0.2zm3.4 13.9c3.9 1.2 6.6-0.3 7.6-4.1s-1.3-6.5-6.2-7.2c-1.6 4.6-1.9 7.4-1.4 11.3z"/>
<path fill="#000000" d="m611.2 228.3c0.4 6.8-1.7 10.8-5.7 11.8-4.2 1.1-10.7-1.3-12.3-4.6-1.8-3.9-0.3-7.6 4.8-11.2 4.9-0.6 9.5-0.2 13.2 4zm-7.8-2.2c-2.7-0.5-4.8 0.1-6 2.6-0.2 4.2-0.1 8.3 4.4 10.5 3.4-1 4.8-3.2 5.5-6.1-0.3-2.8-1.2-5.2-3.9-7z"/>
<path fill="#000000" d="m631.2 237.3c2.9-2 2.4-5 2.7-7.7 1.2-0.7 2.3-0.6 3.5 0.7-2.8 4.1-2.8 9.2-4.3 14-5.5-2.1-6.8-8.1-11-11.5-2.1 2.8-2 5.7-1.5 8.6-1.7 0.7-3 0.9-4.4-0.3 4-4.2 4-9.4 3.8-14.9 3.5-0.4 5.2 1.6 6.7 4.1 1.2 2.5 1.8 5.4 4.5 7z"/>
<path fill="#000000" d="m743.5 265.7h-5c1.8-4.3 0.9-8.5 0.9-12.6-2.6-2.1-2.6-2.1-5.1-0.1-0.6-1.3 0-2.1 1-3 4.5-0.2 9.1 0.1 13.5 0.5 1.5 1.2 1.8 2.6 1.2 4.5-2.2-0.6-2.8-3.8-5.9-3.3-2 4.3-1.5 9-0.6 14z"/>
<path fill="#000000" d="m727.2 265.7c-2 0.2-3.4 0.3-5.3-0.2 2-5.1 1.9-10.4 1.7-15.9 2.3-0.8 4 0.2 6.1 0.9-2.7 4.8-2 9.9-2.5 15.2z"/>
<path fill="#000000" d="m641.3 243.5c-2.1-2.5-2-4.7 0-6.9 4.3-0.1 6.2 1.2 6.2 3.9 0 2.6-1.9 3.5-6.2 3z"/>
<path fill="#000000" d="m655.5 234.9c-0.3 0.2-0.6 0.2-0.8-0.2 0.5-0.6 0.6-0.1 0.8 0.3v-0.1z"/>
<path fill="#000000" d="m645.6 210.6c5.7 0 8.1 5.1 6.3 12.2-1.3 0.8-2.5 0.5-3.9-0.5-2.6-3.3-0.8-7.6-2.4-11.7z"/>
<path fill="#000000" d="m661.8 224.3c-0.4 0.2-0.8 0.6-1.2 0.6-0.8 0-1.6-0.1-2.6-0.2-1.8-3.9-1.1-8.1-2.1-12.1 5 0.2 5.7 1.7 5.9 11.7z"/>
<path fill="#000000" d="m643.1 218.7c-1.9 1.1-3.4 1-5-0.5-0.8-3-0.4-6.3-0.2-9.5 5.4 1 5.8 1.9 5.2 10z"/>
<path fill="#000000" d="m629.8 215.1c-0.3-3.2-1.1-6.2-0.9-9.3 4.8-0.1 5.6 1.6 5.3 9.9-1.5 1.2-2.8 0.7-4.4-0.6z"/>
<path fill="#000000" d="m665.8 214.8c4.9 2.4 5.4 6.2 5.6 10-1.3 1.7-2.7 1.2-4.4 0.8-0.6-3.3-1.6-6.6-1.2-10.8z"/>
<path fill="#000000" d="m674.9 219.3c3.9 0.6 4.2 3.2 4.5 5.7-0.7 1.3-1.7 1.5-3.2 1.1-1-1.9-2-3.9-1.3-6.8z"/>
<path fill="#000000" d="m294.6 200.4c-3.5 0.7-6.5-0.2-7.9 2.4-8.7-1-13.8 6.3-21.5 8.3 0-3.2 2.4-4 4.1-5.2 1.8-1.3 3.3-2.8 4.2-5 6.7-0.2 13-7.3 21.1-0.5z"/>
<path fill="#000000" d="m231.2 74.4c-0.3 1-0.3 1.4-0.5 1.7-4.5 7.7-6.1 15.8-5 24.8 1 8.7-4.6 13.9-13.5 12.9 9.6-4.6 10.6-12.6 10.5-21.2 0-3.3 0.2-6.7 1.2-9.9 1-3.6 2.9-6.6 7.3-8.3z"/>
<path fill="#000000" d="m309.2 80.3c3.2 0.2 4.1 3.1 5.6 5.1 1.2 0 1.3-1.4 2.5-2 5.4 5.2 6 13.4 11.6 18.9-5.2 0.8-5.7 0.3-11.5-11.4-5.6-0.2-8.9-4.4-8.2-10.6z"/>
<path fill="#000000" d="m231.3 109.8c2-2 4-4 6-5.9s3.9-4 5.9-6.8c1.3 3.8 4.3 6 5 10.2-5.8 0.9-11.2 3.1-17.1 2.5h0.2z"/>
<path fill="#000000" d="m231 125.6c-0.6-0.8-0.9-1.7-0.9-3 5.6-2.2 10.9-5.1 17-6.4 1.3-0.3 1.8 0.6 1.8 1.7-5.8 5.1-12.9 8.1-17.9 7.7z"/>
<path fill="#000000" d="m224.2 119.3c6.1-7.5 15.3-6.6 23-9.5 1.5 2.6 0.5 3.9-1.1 4-7.6 0.6-14.4 4.4-21.9 5.5z"/>
<path fill="#000000" d="m249.4 122c-2.4 8.3-9.5 8.2-14.1 11.3-2.2-1.3-2-2.7-1.6-4.4 4.8-2.5 9.8-4.8 15.7-6.9z"/>
<path fill="#000000" d="m243.6 144c-1.9-0.4-3.7 1.8-6.1 0 3.2-4.1 2.4-10.7 8.6-13.5 1.5 5.4-0.9 9.4-2.6 13.6l0.1-0.1z"/>
<path fill="#000000" d="m325.5 81.3c-5.7 0.8-7.1 0-8.8-4.8 3.3-1.5 4.6-0.9 8.8 4.8z"/>
<path fill="#000000" d="m265.6 105.3c1.2-3.3 3.1-5 6-6 1 4.9 0 6-6 6z"/>
<polygon fill="#000000" points="231.2 109.7 231.4 110 231.3 109.8"/>
<polygon fill="#000000" points="232.7 81.5 232.7 81.1 232.7 81.4"/>
<path fill="#000000" d="m664.1 80.3c-1-1.2-1.5-1.9-2-2.5-0.4-0.5-0.5-1.3-1.3-1.4-0.8-0.2-1.3 1.1-2.2 0.6-5.1-5.7-5.5-8.8-1.3-12.8 4.2 1.6 9.1-1.1 13.8 2.3 1.5 1.7 2 4.6 3.2 7.1 1.2 2.6 3.4 4.4 5.8 7.4-5.9 0.9-10.7-3-16-0.7zm3.3-10.5l0.1 0.1c-0.3-1.3-1-2-2.4-1.9-3 4.1-2.3 6.4 2.6 9 1.8-1 1.8-2.9 2.2-4.6-0.3-1.3-1-2.4-2.5-2.6z"/>
<path fill="#000000" d="m631.7 58c4.7-4.7 8-4.5 12.1 0.7-1.5 4-4.3 5.7-8.3 4.9-3-0.6-3.8-1.7-3.8-5.6z"/>
<path fill="#000000" d="m679.7 133c-1.3-1.7-1.1-3.2-0.8-4.8 2.7-0.6 4 1.4 6.2 2.5-1.9 1.7-3.7 1.9-5.4 2.3z"/>
<path fill="#000000" d="m708.9 151.2c-0.5-1.7-0.5-2.8 0-4.2 2.4 0 3.6 1.7 5 3.4-1.5 2.2-3.2 1.3-5 0.8z"/>
<path fill="#000000" d="m703.6 151.3c0.3-1.5 1.3-2.5 2.5-3.3 1.2 0.9 1.3 2.1 1 3.3-1.3 1.4-2.4 0.9-3.5 0z"/>
<path fill="#000000" d="m684.5 134.3c-0.3 2-1.5 2.9-2.3 3.9-2-0.1-1.4-1.6-1.9-2.4 1-1.8 2.4-1.9 4.2-1.5z"/>
<path fill="#000000" d="m674.8 134c-0.4-1.7 0-2.7 1.3-3.7 0.7 1.6 1.1 2.9-1.3 3.7z"/>
<path fill="#000000" d="m438.8 233.8c0.4 3.9 0.4 3.9-2.6 6.4-3.2-0.9-4.3-3-3.5-6.2 2-1.9 3.9-1.8 6.1-0.2z"/>
<path fill="#000000" d="m450.9 247c-0.9-2.2-0.7-4.4 1.7-5.4 2.2-1 3.7 0.3 4.7 2.3 0.3 2.1-0.6 3.5-2.3 4.4-1.7 0.3-3-0.2-4.1-1.3z"/>
<polygon fill="#000000" points="887.8 214.7 887.7 214.9 887.7 214.5"/>
<polygon fill="#000000" points="637 155.5 637.4 155.3"/>
<path fill="#000000" d="m812.9 140.2c4.2 0 7.7 2.9 11.5 2.9 1.5-1 1.2-2.1 0.6-3.6-1.5-0.5-3.4 1.3-5.1-0.6-0.1-1.9 0.9-3.1 3.1-3.9 2.1 1.3 4.4 2.3 7.1 2.1-0.9 5.6-4.7 9.5-9.2 9.7-3.9 0.3-6.8-2.1-8-6.6z"/>
<path fill="#000000" d="m816.3 131.5c5.7-3.8 12.7-1.9 15 3.3-5.1 0.1-9.2-2.8-15-3.3z"/>
<path fill="#000000" d="m818.1 134.2c0.3 2.8-0.6 3.9-3.4 3.2 0-2.2 0.5-3.6 3.4-3.2z"/>
<polygon fill="#000000" points="385.8 77.7 385.7 77.9 385.7 77.6"/>
<path fill="#000000" d="m653.9 137.6c-5.6 0.2-6.7-0.9-5.8-5.5 5.8 0.9 6.3 1.4 5.8 5.5z"/>
<path fill="#000000" d="m686 151.5c0.7 2.2 0.2 3.6-1.6 4.5-2.2 0.3-3.2-1.5-4.5-2.3-0.5-2 0.9-2.9 1.4-4.2 2.3-0.2 3.4 1.3 4.7 2z"/>
<path fill="#000000" d="m661.4 135.9c0.9 2 2 4-0.6 5.7-2.2 0.1-3.6-1.2-4.8-2.9 0.6-3.6 3.4-2.4 5.5-2.7l-0.1-0.1z"/>
<path fill="#000000" d="m670.3 140.9c0.8 2.2 0.1 3.9-1.7 5.1-1.8 0.1-2.7-1.1-3.7-1.8-0.2-1.6 0.4-2.5 1.3-3.6 1.4 0.1 2.8 0.3 4.3 0.5l-0.2-0.2z"/>
<path fill="#000000" d="m678.1 146.9c0.2 1.6-0.5 2.5-1.2 3.5-1.7 0.2-3-0.8-4.2-1.5-0.8-2 0.1-3 1.3-4 1.6 0.1 2.9 0.8 4.1 2z"/>
<path fill="#000000" d="m700.5 161c0.5 1.4-0.1 2.7 0 4.1h-5.1c-0.4-1.4-1.4-2.7-0.4-4.2 1.9-1.7 3.7 0 5.5 0.1z"/>
<path fill="#000000" d="m689.4 161.1c-0.4-1-1.2-1-2-1 0.3-2.5 0.4-2.5 2-4.8 1.6-0.3 2.8 0.3 3.8 1.7-0.2 2.3-1 4.1-3.8 4.1z"/>
<path fill="#000000" d="m667.4 69.8c-0.8 1.7 1.7 3.2 0.3 5-2.7-2-2.7-2.6-0.1-4.8l-0.2-0.2z"/>
</svg>
